<svg xmlns="http://www.w3.org/2000/svg" xmlns:xlink="http://www.w3.org/1999/xlink" width="940" zoomAndPan="magnify" viewBox="0 0 705 591.000005" height="788" preserveAspectRatio="xMidYMid meet" version="1.0"><defs><clipPath id="3184fad1ed"><path d="M 342.054688 482 L 704.402344 482 L 704.402344 590 L 342.054688 590 Z M 342.054688 482 " clip-rule="nonzero"/></clipPath><clipPath id="7bf4d069ac"><path d="M 375 406 L 704.402344 406 L 704.402344 590 L 375 590 Z M 375 406 " clip-rule="nonzero"/></clipPath><clipPath id="ca7867876b"><path d="M 402 406 L 704.402344 406 L 704.402344 590 L 402 590 Z M 402 406 " clip-rule="nonzero"/></clipPath><clipPath id="ceb1e0dd73"><path d="M 433 204.039062 L 626 204.039062 L 626 384 L 433 384 Z M 433 204.039062 " clip-rule="nonzero"/></clipPath><clipPath id="9932bffc34"><path d="M 431 318 L 661 318 L 661 590 L 431 590 Z M 431 318 " clip-rule="nonzero"/></clipPath></defs><g clip-path="url(#3184fad1ed)"><path fill="#efb29a" d="M 741.855469 520.972656 C 741.855469 520.972656 763.402344 561.824219 770.285156 594.238281 L 659.679688 594.238281 L 659.679688 482.335938 Z M 416.242188 503.648438 C 416.242188 503.648438 372.265625 542.285156 342.054688 594.230469 L 485.542969 594.230469 L 485.542969 503.648438 Z M 416.242188 503.648438 " fill-opacity="1" fill-rule="nonzero"/></g><g clip-path="url(#7bf4d069ac)"><path fill="#e0c7f2" d="M 755.425781 518.398438 L 659.679688 594.230469 L 435.5625 594.230469 L 402.375 558.015625 L 378.347656 531.796875 C 374.519531 528.292969 374.414062 522.292969 378.136719 518.667969 C 393.484375 503.703125 433.050781 466.894531 477.058594 440.070312 C 500.652344 425.6875 525.523438 414.171875 548.621094 410.433594 C 548.621094 410.433594 576.460938 400.992188 618.226562 409.980469 C 627.167969 411.902344 636.738281 414.667969 646.820312 418.554688 C 679.800781 431.261719 718.15625 455.929688 757.097656 502.136719 C 761.230469 507.050781 760.453125 514.414062 755.425781 518.398438 Z M 755.425781 518.398438 " fill-opacity="1" fill-rule="nonzero"/></g><g clip-path="url(#ca7867876b)"><path fill="#d3a6e2" d="M 755.425781 518.398438 L 659.679688 594.230469 L 435.5625 594.230469 L 402.375 558.015625 L 435.050781 541.09375 C 503.835938 612.65625 631.695312 563.152344 631.695312 563.152344 C 720.890625 514.945312 648.039062 419.773438 646.820312 418.554688 C 679.800781 431.261719 718.15625 455.929688 757.097656 502.136719 C 761.230469 507.050781 760.453125 514.414062 755.425781 518.398438 Z M 548.621094 410.433594 C 525.523438 414.171875 500.652344 425.6875 477.058594 440.070312 L 508.195312 440.746094 L 599.113281 417.84375 L 618.226562 409.980469 C 576.460938 400.992188 548.621094 410.433594 548.621094 410.433594 Z M 548.621094 410.433594 " fill-opacity="1" fill-rule="nonzero"/></g><g clip-path="url(#ceb1e0dd73)"><path fill="#f7eeff" d="M 589.675781 297.507812 C 589.945312 300.148438 590.082031 302.828125 590.082031 305.550781 C 590.082031 348.6875 555.09375 383.660156 511.9375 383.660156 C 468.777344 383.660156 433.789062 348.6875 433.789062 305.550781 C 433.789062 262.410156 468.777344 227.4375 511.9375 227.4375 C 520.089844 227.4375 527.945312 228.691406 535.339844 231.003906 C 542.992188 215.160156 559.226562 204.230469 578.007812 204.230469 C 604.175781 204.230469 625.394531 225.4375 625.394531 251.59375 C 625.394531 273.722656 610.207031 292.316406 589.675781 297.507812 Z M 589.675781 297.507812 " fill-opacity="1" fill-rule="nonzero"/></g><path fill="#efb29a" d="M 598.070312 337.140625 C 597.042969 350.148438 586.5 363.21875 573.335938 366.339844 L 573.335938 366.347656 L 582.871094 385.410156 C 565.707031 399.25 527.34375 427.546875 502.0625 426.285156 L 500.800781 423.304688 L 496.546875 413.269531 L 496.546875 413.261719 C 496.425781 413.261719 496.304688 413.269531 496.171875 413.269531 C 459.097656 413.269531 428.761719 382.949219 428.761719 345.894531 L 428.761719 312.808594 C 428.761719 298.886719 433.039062 285.914062 440.355469 275.148438 C 452.511719 257.253906 473.023438 245.4375 496.171875 245.4375 C 514.710938 245.4375 531.554688 253.011719 543.777344 265.226562 C 554.667969 276.113281 561.863281 290.6875 563.296875 306.863281 C 565.535156 306.558594 567.847656 306.480469 570.207031 306.671875 C 577.339844 307.226562 583.707031 310.0625 588.554688 314.367188 C 595 320.035156 598.765625 328.28125 598.070312 337.140625 Z M 598.070312 337.140625 " fill-opacity="1" fill-rule="nonzero"/><path fill="#e0c7f2" d="M 599.113281 417.84375 L 549.066406 465.320312 L 487.464844 471.832031 L 508.195312 440.746094 L 502.0625 426.285156 C 527.34375 427.546875 565.707031 399.25 582.871094 385.410156 Z M 599.113281 417.84375 " fill-opacity="1" fill-rule="nonzero"/><g clip-path="url(#9932bffc34)"><path fill="#11084e" d="M 496.546875 413.269531 C 514.050781 413.171875 530.03125 406.3125 541.992188 395.191406 C 532.476562 409.21875 517.824219 419.503906 500.800781 423.304688 Z M 496.171875 335.121094 C 500.070312 335.121094 503.226562 331.964844 503.226562 328.070312 C 503.226562 324.175781 500.070312 321.019531 496.171875 321.019531 C 492.277344 321.019531 489.117188 324.175781 489.117188 328.070312 C 489.117188 331.964844 492.277344 335.121094 496.171875 335.121094 Z M 453.519531 335.121094 C 457.417969 335.121094 460.574219 331.964844 460.574219 328.070312 C 460.574219 324.175781 457.417969 321.019531 453.519531 321.019531 C 449.621094 321.019531 446.464844 324.175781 446.464844 328.070312 C 446.464844 331.964844 449.628906 335.121094 453.519531 335.121094 Z M 475.371094 350 L 480.871094 350 C 481.347656 350 481.742188 349.609375 481.742188 349.132812 C 481.742188 348.652344 481.347656 348.261719 480.871094 348.261719 L 475.371094 348.261719 C 473.101562 348.261719 471.003906 347.234375 469.613281 345.445312 C 468.222656 343.652344 467.742188 341.375 468.300781 339.175781 L 469.71875 333.574219 C 469.839844 333.105469 469.550781 332.636719 469.089844 332.523438 C 468.628906 332.410156 468.152344 332.6875 468.039062 333.148438 L 466.621094 338.75 C 465.933594 341.46875 466.523438 344.296875 468.246094 346.515625 C 469.96875 348.730469 472.570312 350 475.371094 350 Z M 496.9375 360.304688 C 499.402344 362.132812 502.550781 364.296875 506.195312 366.453125 C 506.335938 366.53125 506.492188 366.574219 506.636719 366.574219 C 506.933594 366.574219 507.222656 366.425781 507.386719 366.148438 C 507.628906 365.730469 507.492188 365.199219 507.082031 364.957031 C 498.277344 359.738281 492.398438 354.453125 492.34375 354.402344 C 491.988281 354.078125 491.441406 354.105469 491.117188 354.460938 C 490.796875 354.816406 490.824219 355.367188 491.179688 355.6875 C 491.214844 355.714844 492.816406 357.15625 495.582031 359.269531 C 494.199219 360.175781 478.105469 370.390625 463.046875 367.503906 C 462.574219 367.417969 462.113281 367.722656 462.027344 368.191406 C 461.941406 368.660156 462.246094 369.121094 462.714844 369.210938 C 464.714844 369.589844 466.726562 369.765625 468.71875 369.765625 C 482.976562 369.765625 496.035156 361.0625 496.652344 360.644531 C 496.789062 360.566406 496.878906 360.433594 496.9375 360.304688 Z M 525.300781 353.773438 C 525.550781 353.773438 525.792969 353.671875 525.96875 353.460938 L 531.300781 347.027344 C 531.605469 346.652344 531.554688 346.105469 531.1875 345.800781 C 530.824219 345.496094 530.265625 345.546875 529.960938 345.914062 L 524.628906 352.347656 C 524.324219 352.722656 524.375 353.269531 524.742188 353.574219 C 524.90625 353.703125 525.097656 353.773438 525.300781 353.773438 Z M 447.003906 363.558594 C 446.628906 363.859375 446.578125 364.410156 446.882812 364.78125 L 449.988281 368.558594 C 450.160156 368.765625 450.40625 368.871094 450.65625 368.871094 C 450.847656 368.871094 451.046875 368.808594 451.214844 368.667969 C 451.589844 368.367188 451.640625 367.816406 451.335938 367.445312 L 448.230469 363.671875 C 447.925781 363.304688 447.378906 363.253906 447.003906 363.558594 Z M 513.824219 326.46875 C 513.910156 326.46875 514.007812 326.453125 514.09375 326.425781 L 519.539062 324.652344 C 519.992188 324.503906 520.246094 324.011719 520.097656 323.558594 C 519.949219 323.105469 519.460938 322.851562 519 323 L 513.554688 324.773438 C 513.101562 324.921875 512.851562 325.417969 512.996094 325.871094 C 513.109375 326.234375 513.457031 326.46875 513.824219 326.46875 Z M 460.007812 493.222656 C 459.601562 493.570312 449.917969 501.972656 441.871094 518.703125 C 434.457031 534.117188 427.203125 559.769531 434.710938 594.414062 C 434.796875 594.820312 435.164062 595.101562 435.5625 595.101562 C 435.625 595.101562 435.683594 595.089844 435.746094 595.082031 C 436.214844 594.980469 436.511719 594.519531 436.417969 594.046875 C 429.023438 559.925781 436.136719 534.703125 443.402344 519.535156 C 451.285156 503.101562 461.042969 494.625 461.140625 494.546875 C 461.503906 494.234375 461.550781 493.683594 461.234375 493.320312 C 460.921875 492.953125 460.375 492.910156 460.007812 493.222656 Z M 660.324219 593.648438 L 598.800781 524.824219 C 598.480469 524.46875 597.929688 524.433594 597.574219 524.753906 C 597.21875 525.074219 597.183594 525.625 597.503906 525.980469 L 659.027344 594.804688 C 659.203125 594.996094 659.4375 595.089844 659.679688 595.089844 C 659.886719 595.089844 660.097656 595.023438 660.261719 594.875 C 660.609375 594.5625 660.644531 594.011719 660.324219 593.648438 Z M 599.835938 417.347656 C 599.566406 416.945312 599.019531 416.851562 598.625 417.121094 L 497.582031 486.09375 L 509.039062 440.957031 C 509.160156 440.484375 508.875 440.015625 508.414062 439.894531 C 507.945312 439.78125 507.472656 440.058594 507.351562 440.519531 L 495.328125 487.886719 C 495.242188 488.234375 495.382812 488.605469 495.675781 488.816406 C 495.824219 488.917969 496 488.972656 496.171875 488.972656 C 496.347656 488.972656 496.511719 488.917969 496.660156 488.824219 L 599.601562 418.554688 C 600 418.285156 600.105469 417.746094 599.835938 417.347656 Z M 567.316406 341.757812 C 570.578125 344.027344 572.214844 347.851562 571.476562 351.515625 L 571.363281 352.078125 C 571.265625 352.546875 571.570312 353.007812 572.042969 353.105469 C 572.101562 353.113281 572.152344 353.121094 572.214844 353.121094 C 572.625 353.121094 572.980469 352.835938 573.066406 352.425781 L 573.179688 351.863281 C 574.058594 347.523438 572.144531 342.992188 568.308594 340.332031 C 563.644531 337.097656 564.734375 329.679688 564.742188 329.601562 C 564.75 329.558594 564.75 329.515625 564.75 329.46875 C 564.75 324.304688 568.960938 320.097656 574.128906 320.097656 C 579.296875 320.097656 583.507812 324.304688 583.507812 329.46875 C 583.507812 329.949219 583.898438 330.339844 584.378906 330.339844 C 584.855469 330.339844 585.246094 329.949219 585.246094 329.46875 C 585.246094 323.339844 580.261719 318.359375 574.128906 318.359375 C 568.023438 318.359375 563.046875 323.304688 563.011719 329.402344 C 562.890625 330.28125 561.957031 338.042969 567.316406 341.757812 Z M 567.316406 341.757812 " fill-opacity="1" fill-rule="nonzero"/></g><path fill="#f7eeff" d="M 503.835938 495.832031 C 503.835938 502.804688 498.175781 508.46875 491.195312 508.46875 C 484.21875 508.46875 478.554688 502.804688 478.554688 495.832031 C 478.554688 488.859375 484.21875 483.199219 491.195312 483.199219 C 498.175781 483.207031 503.835938 488.859375 503.835938 495.832031 Z M 571.738281 414.3125 C 569.386719 414.3125 567.484375 416.21875 567.484375 418.566406 C 567.484375 420.914062 569.386719 422.816406 571.738281 422.816406 C 574.085938 422.816406 575.992188 420.914062 575.992188 418.566406 C 575.992188 416.21875 574.09375 414.3125 571.738281 414.3125 Z M 480.53125 509.492188 C 477.304688 509.492188 474.695312 512.109375 474.695312 515.328125 C 474.695312 518.546875 477.3125 521.164062 480.53125 521.164062 C 483.757812 521.164062 486.367188 518.546875 486.367188 515.328125 C 486.367188 512.109375 483.757812 509.492188 480.53125 509.492188 Z M 575.660156 406.355469 L 575.660156 381.929688 C 575.660156 379.773438 573.894531 378.007812 571.738281 378.007812 C 569.578125 378.007812 567.8125 379.773438 567.8125 381.929688 L 567.8125 406.355469 C 567.8125 408.511719 569.578125 410.277344 571.738281 410.277344 C 573.902344 410.277344 575.660156 408.511719 575.660156 406.355469 Z M 563.316406 306.855469 C 577.859375 272.125 547.734375 240.195312 503.226562 238.863281 C 458.722656 237.535156 430.8125 260.324219 420.453125 281.488281 C 410.089844 302.652344 428.769531 317.601562 428.769531 317.601562 C 503.226562 302.949219 501.671875 267.117188 501.671875 267.117188 C 505.039062 310.933594 563.316406 306.855469 563.316406 306.855469 Z M 571.738281 356.714844 C 566.464844 356.714844 562.183594 360.992188 562.183594 366.261719 C 562.183594 371.53125 566.464844 375.808594 571.738281 375.808594 C 577.007812 375.808594 581.289062 371.53125 581.289062 366.261719 C 581.289062 360.992188 577.015625 356.714844 571.738281 356.714844 Z M 571.738281 356.714844 " fill-opacity="1" fill-rule="nonzero"/><path fill="#e0c7f2" d="M 564.757812 305.886719 C 564.21875 305.089844 563.140625 304.878906 562.339844 305.410156 L 532.433594 325.4375 L 526.167969 325.4375 C 526.144531 310.636719 514.085938 298.609375 499.277344 298.609375 C 484.464844 298.609375 472.414062 310.644531 472.386719 325.445312 C 469.847656 324.566406 465.785156 323.742188 461.800781 325.324219 C 460.644531 311.835938 451.363281 301.296875 440.132812 301.296875 C 428.117188 301.296875 418.339844 313.359375 418.339844 328.175781 C 418.339844 342.992188 428.117188 355.054688 440.132812 355.054688 C 451.882812 355.054688 461.488281 343.523438 461.90625 329.148438 C 466.0625 326.730469 470.960938 328.523438 472.660156 329.289062 C 474.511719 342.3125 485.742188 352.367188 499.277344 352.367188 C 512.945312 352.367188 524.253906 342.121094 525.941406 328.914062 L 532.964844 328.914062 C 533.3125 328.914062 533.640625 328.808594 533.929688 328.617188 L 564.28125 308.296875 C 565.082031 307.765625 565.289062 306.6875 564.757812 305.886719 Z M 440.132812 351.582031 C 430.03125 351.582031 421.820312 341.085938 421.820312 328.183594 C 421.820312 315.28125 430.03125 304.785156 440.132812 304.785156 C 450.230469 304.785156 458.445312 315.28125 458.445312 328.183594 C 458.445312 341.085938 450.230469 351.582031 440.132812 351.582031 Z M 499.277344 348.886719 C 486.367188 348.886719 475.867188 338.390625 475.867188 325.488281 C 475.867188 312.585938 486.367188 302.089844 499.277344 302.089844 C 512.1875 302.089844 522.6875 312.585938 522.6875 325.488281 C 522.6875 338.390625 512.1875 348.886719 499.277344 348.886719 Z M 499.277344 348.886719 " fill-opacity="1" fill-rule="nonzero"/></svg>