<svg xmlns="http://www.w3.org/2000/svg" xmlns:xlink="http://www.w3.org/1999/xlink" width="500" zoomAndPan="magnify" viewBox="0 0 375 374.999991" height="500" preserveAspectRatio="xMidYMid meet" version="1.0"><defs><g/><clipPath id="544f79b668"><path d="M 23.476562 126.882812 L 351.222656 126.882812 L 351.222656 236.382812 L 23.476562 236.382812 Z M 23.476562 126.882812 " clip-rule="nonzero"/></clipPath></defs><g clip-path="url(#544f79b668)"><path stroke-linecap="butt" transform="matrix(0.75, 0, 0, 0.75, 23.47538, 126.883321)" fill="none" stroke-linejoin="miter" d="M 0.00157635 -0.000678357 L 437.381813 -0.000678357 L 437.381813 146.014956 L 0.00157635 146.014956 Z M 0.00157635 -0.000678357 " stroke="#060606" stroke-width="2" stroke-opacity="1" stroke-miterlimit="4"/></g><g fill="#060606" fill-opacity="1"><g transform="translate(92.973929, 199.997294)"><g><path d="M 12.796875 -35.9375 C 14.265625 -35.9375 15.421875 -35.773438 16.265625 -35.453125 C 17.117188 -35.140625 17.992188 -34.6875 18.890625 -34.09375 C 19.628906 -33.625 20.195312 -33.390625 20.59375 -33.390625 C 20.894531 -33.390625 21.128906 -33.5625 21.296875 -33.90625 C 21.460938 -34.257812 21.59375 -34.820312 21.6875 -35.59375 L 22.84375 -35.59375 C 22.675781 -33.65625 22.59375 -30.253906 22.59375 -25.390625 L 21.4375 -25.390625 C 21.238281 -28.085938 20.460938 -30.359375 19.109375 -32.203125 C 17.765625 -34.054688 15.8125 -34.984375 13.25 -34.984375 C 11.445312 -34.984375 9.976562 -34.441406 8.84375 -33.359375 C 7.707031 -32.273438 7.140625 -30.882812 7.140625 -29.1875 C 7.140625 -27.925781 7.429688 -26.828125 8.015625 -25.890625 C 8.597656 -24.960938 9.335938 -24.164062 10.234375 -23.5 C 11.140625 -22.832031 12.425781 -21.976562 14.09375 -20.9375 L 15.546875 -20.046875 C 17.640625 -18.742188 19.296875 -17.597656 20.515625 -16.609375 C 21.734375 -15.628906 22.707031 -14.503906 23.4375 -13.234375 C 24.175781 -11.972656 24.546875 -10.492188 24.546875 -8.796875 C 24.546875 -5.765625 23.546875 -3.421875 21.546875 -1.765625 C 19.546875 -0.117188 17.015625 0.703125 13.953125 0.703125 C 12.347656 0.703125 11.035156 0.535156 10.015625 0.203125 C 9.003906 -0.128906 8.03125 -0.582031 7.09375 -1.15625 C 6.363281 -1.613281 5.796875 -1.84375 5.390625 -1.84375 C 5.097656 -1.84375 4.867188 -1.664062 4.703125 -1.3125 C 4.535156 -0.96875 4.398438 -0.414062 4.296875 0.34375 L 3.15625 0.34375 C 3.28125 -1.488281 3.34375 -5.484375 3.34375 -11.640625 L 4.5 -11.640625 C 4.726562 -8.273438 5.554688 -5.539062 6.984375 -3.4375 C 8.421875 -1.34375 10.625 -0.296875 13.59375 -0.296875 C 15.394531 -0.296875 16.925781 -0.851562 18.1875 -1.96875 C 19.457031 -3.09375 20.09375 -4.753906 20.09375 -6.953125 C 20.09375 -8.816406 19.46875 -10.394531 18.21875 -11.6875 C 16.96875 -12.988281 14.992188 -14.457031 12.296875 -16.09375 C 10.328125 -17.289062 8.734375 -18.351562 7.515625 -19.28125 C 6.304688 -20.21875 5.316406 -21.34375 4.546875 -22.65625 C 3.785156 -23.976562 3.40625 -25.523438 3.40625 -27.296875 C 3.40625 -30.085938 4.300781 -32.222656 6.09375 -33.703125 C 7.894531 -35.191406 10.128906 -35.9375 12.796875 -35.9375 Z M 12.796875 -35.9375 "/></g></g></g><g fill="#060606" fill-opacity="1"><g transform="translate(147.660756, 212.193963)"><g><path d="M 4.75 -26.078125 C 4.414062 -26.191406 4.222656 -26.300781 4.171875 -26.40625 C 4.171875 -26.6875 4.335938 -26.882812 4.671875 -27 L 7.828125 -27.25 L 7.828125 -27.15625 L 9.828125 -27.15625 C 10.222656 -27.15625 10.53125 -27.046875 10.75 -26.828125 C 10.800781 -26.828125 10.828125 -26.742188 10.828125 -26.578125 C 10.828125 -26.410156 10.769531 -26.328125 10.65625 -26.328125 C 10.550781 -26.273438 10.390625 -26.25 10.171875 -26.25 C 7.503906 -26.25 5.804688 -26.191406 5.078125 -26.078125 Z M 4.75 -26.078125 "/></g></g></g><g fill="#060606" fill-opacity="1"><g transform="translate(161.822993, 212.193963)"><g><path d="M 10.078125 0 C 7.242188 -0.28125 5.160156 -1.472656 3.828125 -3.578125 C 2.828125 -5.140625 2.160156 -6.890625 1.828125 -8.828125 C 0.941406 -13.046875 0.640625 -17.460938 0.921875 -22.078125 C 1.421875 -28.628906 3.054688 -35.238281 5.828125 -41.90625 C 7.160156 -45.125 8.910156 -48.097656 11.078125 -50.828125 C 12.691406 -52.984375 14.859375 -54.925781 17.578125 -56.65625 C 18.523438 -57.257812 19.5 -57.675781 20.5 -57.90625 C 21.101562 -58.007812 21.65625 -57.953125 22.15625 -57.734375 C 22.4375 -57.617188 22.660156 -57.394531 22.828125 -57.0625 C 23.046875 -56.5625 22.9375 -56.3125 22.5 -56.3125 C 21.21875 -56.425781 19.632812 -55.816406 17.75 -54.484375 C 15.519531 -53.035156 13.4375 -50.898438 11.5 -48.078125 C 8.882812 -44.128906 6.71875 -39.546875 5 -34.328125 C 3.21875 -28.609375 2.300781 -23.300781 2.25 -18.40625 C 2.132812 -14.46875 2.441406 -11.054688 3.171875 -8.171875 C 3.390625 -7.171875 3.832031 -5.972656 4.5 -4.578125 C 6.050781 -1.691406 8.46875 -0.523438 11.75 -1.078125 C 13.6875 -1.359375 15.4375 -2.023438 17 -3.078125 C 19.269531 -4.742188 21.101562 -6.578125 22.5 -8.578125 C 23.9375 -10.628906 26.570312 -15.019531 30.40625 -21.75 C 31.351562 -23.1875 32.160156 -24.570312 32.828125 -25.90625 L 33.15625 -26.25 L 33.40625 -26.40625 C 33.519531 -26.300781 33.578125 -26.191406 33.578125 -26.078125 C 33.347656 -25.523438 33.148438 -25.132812 32.984375 -24.90625 C 29.660156 -19.070312 26.882812 -14.269531 24.65625 -10.5 C 22.65625 -7.113281 20.046875 -4.335938 16.828125 -2.171875 C 14.941406 -0.890625 12.691406 -0.164062 10.078125 0 Z M 10.078125 0 "/></g></g></g><g fill="#060606" fill-opacity="1"><g transform="translate(193.729673, 212.193963)"><g><path d="M 25.15625 -0.5 C 24.320312 0.28125 23.519531 0.195312 22.75 -0.75 C 22.25 -1.300781 21.859375 -2.078125 21.578125 -3.078125 C 21.242188 -4.242188 21.019531 -5.71875 20.90625 -7.5 C 20.738281 -11.332031 20.90625 -15.109375 21.40625 -18.828125 C 22.351562 -25.878906 23.71875 -33.820312 25.5 -42.65625 L 27.078125 -49.234375 L 27.078125 -49.984375 C 26.960938 -49.929688 26.738281 -49.65625 26.40625 -49.15625 C 20.738281 -38.039062 17.351562 -31.40625 16.25 -29.25 C 12.582031 -22.1875 9.441406 -16.320312 6.828125 -11.65625 C 5.992188 -10.164062 5.242188 -9.003906 4.578125 -8.171875 C 4.191406 -7.609375 3.804688 -7.21875 3.421875 -7 C 2.921875 -6.664062 2.445312 -6.566406 2 -6.703125 C 1.550781 -6.847656 1.242188 -7.195312 1.078125 -7.75 C 0.910156 -8.363281 0.828125 -8.921875 0.828125 -9.421875 C 0.773438 -10.859375 0.914062 -12.410156 1.25 -14.078125 C 2.46875 -20.359375 3.800781 -25.441406 5.25 -29.328125 C 7.582031 -35.710938 10.691406 -41.265625 14.578125 -45.984375 C 16.128906 -47.984375 17.90625 -49.625 19.90625 -50.90625 C 20.6875 -51.457031 21.492188 -51.847656 22.328125 -52.078125 C 23.773438 -52.515625 24.914062 -52.097656 25.75 -50.828125 L 26.078125 -50.15625 C 26.242188 -50.4375 26.4375 -50.796875 26.65625 -51.234375 C 26.882812 -51.679688 27.082031 -52.015625 27.25 -52.234375 C 27.46875 -52.679688 27.660156 -52.988281 27.828125 -53.15625 C 27.992188 -53.375 28.1875 -53.425781 28.40625 -53.3125 C 28.632812 -53.257812 28.75 -53.09375 28.75 -52.8125 C 28.75 -52.425781 28.71875 -52.148438 28.65625 -51.984375 L 27.15625 -44.65625 C 27.101562 -44.4375 26.351562 -40.460938 24.90625 -32.734375 C 24.851562 -32.460938 24.628906 -31.144531 24.234375 -28.78125 C 23.847656 -26.425781 23.570312 -24.609375 23.40625 -23.328125 C 22.519531 -16.773438 22.160156 -11.859375 22.328125 -8.578125 C 22.441406 -6.304688 22.632812 -4.613281 22.90625 -3.5 C 23.132812 -2.613281 23.382812 -1.972656 23.65625 -1.578125 C 23.988281 -1.191406 24.320312 -1.164062 24.65625 -1.5 C 24.9375 -1.78125 25.242188 -2.140625 25.578125 -2.578125 C 26.460938 -3.859375 27.238281 -5.222656 27.90625 -6.671875 L 34.234375 -21.5 L 36.234375 -25.75 C 36.296875 -25.914062 36.492188 -26.164062 36.828125 -26.5 L 37.15625 -26.5 C 37.207031 -26.4375 37.234375 -26.378906 37.234375 -26.328125 C 37.179688 -26.273438 37.15625 -26.175781 37.15625 -26.03125 C 37.15625 -25.894531 37.128906 -25.800781 37.078125 -25.75 L 29.578125 -7.921875 C 28.460938 -5.304688 27.378906 -3.304688 26.328125 -1.921875 C 25.878906 -1.253906 25.488281 -0.78125 25.15625 -0.5 Z M 2.671875 -7.921875 C 2.890625 -7.921875 3.082031 -8.003906 3.25 -8.171875 C 3.863281 -8.609375 4.390625 -9.242188 4.828125 -10.078125 L 7.578125 -14.578125 C 10.628906 -20.078125 14.546875 -27.492188 19.328125 -36.828125 C 20.992188 -40.097656 22.882812 -43.734375 25 -47.734375 C 25.4375 -48.566406 25.351562 -49.375 24.75 -50.15625 C 24.300781 -50.769531 23.71875 -50.992188 23 -50.828125 C 22.5 -50.710938 21.800781 -50.378906 20.90625 -49.828125 C 19.132812 -48.660156 17.5 -47.101562 16 -45.15625 C 12.113281 -40.269531 9.054688 -34.769531 6.828125 -28.65625 C 5.441406 -24.601562 4.023438 -19.1875 2.578125 -12.40625 C 2.523438 -12.070312 2.457031 -11.570312 2.375 -10.90625 C 2.289062 -10.25 2.222656 -9.753906 2.171875 -9.421875 L 2.25 -9.421875 L 2.25 -8.578125 C 2.25 -8.191406 2.390625 -7.972656 2.671875 -7.921875 Z M 2.671875 -7.921875 "/></g></g></g><g fill="#060606" fill-opacity="1"><g transform="translate(229.30188, 212.193963)"><g><path d="M 2.25 0.171875 C 1.914062 0.222656 1.640625 0.0546875 1.421875 -0.328125 C 1.253906 -0.773438 1.171875 -1.191406 1.171875 -1.578125 C 0.941406 -4.023438 0.828125 -5.859375 0.828125 -7.078125 C 1.273438 -12.691406 1.523438 -15.632812 1.578125 -15.90625 C 1.972656 -19.40625 2.472656 -23.046875 3.078125 -26.828125 L 5.328125 -39.734375 L 8.078125 -56.734375 C 8.140625 -57.117188 8.210938 -57.6875 8.296875 -58.4375 C 8.378906 -59.1875 8.445312 -59.757812 8.5 -60.15625 C 8.5 -60.488281 8.582031 -60.765625 8.75 -60.984375 C 8.75 -61.097656 8.859375 -61.15625 9.078125 -61.15625 C 9.242188 -61.15625 9.382812 -61.097656 9.5 -60.984375 C 9.71875 -60.597656 9.828125 -60.15625 9.828125 -59.65625 C 9.828125 -57.875 9.800781 -56.539062 9.75 -55.65625 C 9.363281 -50.875 8.554688 -44.707031 7.328125 -37.15625 C 6.722656 -33.769531 6.253906 -30.992188 5.921875 -28.828125 C 5.804688 -28.273438 5.75 -27.832031 5.75 -27.5 C 5.695312 -27.332031 5.722656 -27.21875 5.828125 -27.15625 C 5.941406 -27.101562 6.082031 -27.078125 6.25 -27.078125 C 6.863281 -27.191406 7.195312 -27.5 7.25 -28 L 8.5 -32.984375 C 10.101562 -38.597656 11.546875 -42.796875 12.828125 -45.578125 C 13.710938 -47.578125 14.796875 -49.519531 16.078125 -51.40625 C 17.691406 -53.738281 19.691406 -55.65625 22.078125 -57.15625 C 22.859375 -57.59375 23.441406 -57.894531 23.828125 -58.0625 C 25.660156 -58.675781 26.992188 -58.09375 27.828125 -56.3125 C 28.273438 -55.257812 28.5 -54.175781 28.5 -53.0625 C 28.664062 -50.84375 28.273438 -48.398438 27.328125 -45.734375 C 26.160156 -42.796875 24.882812 -40.160156 23.5 -37.828125 C 20.769531 -33.046875 16.769531 -29.6875 11.5 -27.75 C 11 -27.582031 9.890625 -27.21875 8.171875 -26.65625 C 7.722656 -26.488281 7.472656 -26.238281 7.421875 -25.90625 C 7.421875 -25.800781 7.390625 -25.675781 7.328125 -25.53125 C 7.273438 -25.394531 7.25 -25.300781 7.25 -25.25 C 7.132812 -24.351562 7.09375 -23.847656 7.125 -23.734375 C 7.15625 -23.628906 7.472656 -23.328125 8.078125 -22.828125 L 13.15625 -18.5 C 14.15625 -17.601562 15.070312 -16.90625 15.90625 -16.40625 C 18.019531 -15.238281 20.160156 -15.046875 22.328125 -15.828125 C 23.109375 -16.046875 24.164062 -16.546875 25.5 -17.328125 C 25.664062 -17.441406 26.066406 -17.71875 26.703125 -18.15625 C 27.335938 -18.601562 27.820312 -18.96875 28.15625 -19.25 C 29.382812 -20.1875 31.117188 -21.570312 33.359375 -23.40625 C 35.609375 -25.238281 36.898438 -26.296875 37.234375 -26.578125 C 37.398438 -26.742188 37.539062 -26.742188 37.65625 -26.578125 C 37.769531 -26.460938 37.769531 -26.351562 37.65625 -26.25 C 37.488281 -26.019531 37.179688 -25.6875 36.734375 -25.25 C 36.460938 -25.019531 35.253906 -24.015625 33.109375 -22.234375 C 30.972656 -20.460938 29.320312 -19.101562 28.15625 -18.15625 C 26.4375 -16.769531 24.601562 -15.71875 22.65625 -15 C 19.988281 -14 17.460938 -14.273438 15.078125 -15.828125 C 13.960938 -16.609375 13.15625 -17.21875 12.65625 -17.65625 C 12.21875 -17.988281 11.757812 -18.363281 11.28125 -18.78125 C 10.8125 -19.195312 10.300781 -19.671875 9.75 -20.203125 C 9.195312 -20.734375 8.753906 -21.132812 8.421875 -21.40625 L 7.25 -22.328125 C 6.914062 -22.546875 6.691406 -22.460938 6.578125 -22.078125 C 6.578125 -21.859375 6.550781 -21.691406 6.5 -21.578125 C 5.382812 -15.910156 4.492188 -10.828125 3.828125 -6.328125 C 3.660156 -5.160156 3.359375 -3.410156 2.921875 -1.078125 C 2.921875 -1.023438 2.90625 -0.914062 2.875 -0.75 C 2.84375 -0.582031 2.800781 -0.472656 2.75 -0.421875 C 2.695312 -0.140625 2.53125 0.0546875 2.25 0.171875 Z M 8.421875 -27.75 C 9.023438 -27.914062 10.328125 -28.382812 12.328125 -29.15625 C 16.273438 -30.875 19.5 -33.539062 22 -37.15625 C 23.71875 -39.707031 25.300781 -42.875 26.75 -46.65625 C 27.300781 -48.207031 27.632812 -50.039062 27.75 -52.15625 C 27.75 -53.320312 27.632812 -54.320312 27.40625 -55.15625 C 27.238281 -55.707031 27.019531 -56.148438 26.75 -56.484375 C 26.300781 -57.316406 25.550781 -57.648438 24.5 -57.484375 C 23.882812 -57.316406 23.21875 -57.007812 22.5 -56.5625 C 20.664062 -55.457031 19.023438 -54.015625 17.578125 -52.234375 C 16.296875 -50.628906 15.101562 -48.6875 14 -46.40625 C 12.550781 -43.457031 11.191406 -39.816406 9.921875 -35.484375 C 9.640625 -34.597656 9.257812 -33.28125 8.78125 -31.53125 C 8.3125 -29.78125 8.023438 -28.710938 7.921875 -28.328125 C 7.859375 -28.109375 7.867188 -27.941406 7.953125 -27.828125 C 8.035156 -27.710938 8.191406 -27.6875 8.421875 -27.75 Z M 6.25 -24.40625 L 6.5 -24.578125 C 6.550781 -24.859375 6.632812 -25.21875 6.75 -25.65625 C 6.800781 -25.820312 6.757812 -25.945312 6.625 -26.03125 C 6.488281 -26.113281 6.363281 -26.128906 6.25 -26.078125 C 5.863281 -25.960938 5.640625 -25.820312 5.578125 -25.65625 C 5.410156 -25.382812 5.382812 -25.132812 5.5 -24.90625 C 5.664062 -24.632812 5.914062 -24.46875 6.25 -24.40625 Z M 3.75 -10.25 C 3.863281 -10.6875 4.015625 -11.445312 4.203125 -12.53125 C 4.398438 -13.613281 4.554688 -14.4375 4.671875 -15 C 4.835938 -15.882812 5.070312 -17.144531 5.375 -18.78125 C 5.675781 -20.425781 5.910156 -21.609375 6.078125 -22.328125 C 6.191406 -22.710938 6.207031 -22.972656 6.125 -23.109375 C 6.039062 -23.253906 5.773438 -23.4375 5.328125 -23.65625 C 5.222656 -23.550781 5.171875 -23.46875 5.171875 -23.40625 L 4.921875 -22.578125 C 4.804688 -21.296875 4.59375 -19.40625 4.28125 -16.90625 C 3.976562 -14.40625 3.742188 -12.546875 3.578125 -11.328125 L 3.578125 -10.421875 L 3.671875 -10.421875 Z M 3.75 -10.25 "/></g></g></g><g fill="#060606" fill-opacity="1"><g transform="translate(265.37393, 212.193963)"><g><path d="M 5.75 -0.171875 C 4.53125 0.222656 3.445312 -0.109375 2.5 -1.171875 C 2 -1.671875 1.664062 -2.304688 1.5 -3.078125 C 1.164062 -4.078125 0.941406 -5.691406 0.828125 -7.921875 C 0.992188 -12.242188 1.941406 -16.570312 3.671875 -20.90625 C 5.890625 -26.46875 9.023438 -31.191406 13.078125 -35.078125 L 17.5 -39.15625 C 18.71875 -40.269531 19.550781 -41.160156 20 -41.828125 C 20.050781 -41.878906 20.21875 -42.179688 20.5 -42.734375 C 20.769531 -43.128906 20.65625 -43.328125 20.15625 -43.328125 L 19.15625 -43.078125 C 17.4375 -42.628906 15.101562 -41.765625 12.15625 -40.484375 C 11.9375 -40.378906 11.300781 -40.078125 10.25 -39.578125 C 9.195312 -39.078125 8.363281 -38.710938 7.75 -38.484375 C 7.082031 -38.148438 6.5 -37.984375 6 -37.984375 C 4.945312 -37.984375 4.503906 -38.457031 4.671875 -39.40625 C 4.671875 -39.625 4.804688 -40.148438 5.078125 -40.984375 C 5.359375 -41.878906 5.890625 -42.796875 6.671875 -43.734375 C 9.554688 -47.898438 13.109375 -51.257812 17.328125 -53.8125 C 18.773438 -54.757812 20.25 -55.425781 21.75 -55.8125 C 22.75 -56.144531 23.71875 -56.203125 24.65625 -55.984375 C 25.269531 -55.816406 25.578125 -55.484375 25.578125 -54.984375 C 25.628906 -54.765625 25.585938 -54.597656 25.453125 -54.484375 C 25.316406 -54.367188 25.164062 -54.367188 25 -54.484375 C 24.4375 -54.816406 23.519531 -54.816406 22.25 -54.484375 C 21.25 -54.203125 20.132812 -53.726562 18.90625 -53.0625 C 14.300781 -50.34375 10.523438 -46.898438 7.578125 -42.734375 C 6.804688 -41.679688 6.28125 -40.679688 6 -39.734375 C 5.945312 -39.628906 5.972656 -39.519531 6.078125 -39.40625 C 6.191406 -39.289062 6.332031 -39.265625 6.5 -39.328125 C 7.28125 -39.546875 7.835938 -39.738281 8.171875 -39.90625 C 12.328125 -41.738281 14.988281 -42.847656 16.15625 -43.234375 C 16.988281 -43.515625 17.960938 -43.796875 19.078125 -44.078125 C 19.296875 -44.179688 19.519531 -44.234375 19.75 -44.234375 C 20.46875 -44.460938 21.019531 -44.296875 21.40625 -43.734375 C 21.738281 -43.234375 21.710938 -42.648438 21.328125 -41.984375 C 20.941406 -41.210938 20.359375 -40.4375 19.578125 -39.65625 C 17.910156 -38.101562 16.6875 -36.9375 15.90625 -36.15625 C 14.132812 -34.488281 12.832031 -33.210938 12 -32.328125 C 7.550781 -27.378906 4.492188 -21.351562 2.828125 -14.25 C 2.222656 -11.414062 2.003906 -8.609375 2.171875 -5.828125 C 2.273438 -4.941406 2.4375 -4.132812 2.65625 -3.40625 C 2.882812 -2.6875 3.140625 -2.191406 3.421875 -1.921875 C 3.921875 -1.304688 4.554688 -1.082031 5.328125 -1.25 C 6.054688 -1.414062 6.835938 -1.722656 7.671875 -2.171875 C 8.671875 -2.722656 9.722656 -3.609375 10.828125 -4.828125 C 13.273438 -7.660156 15.25 -10.132812 16.75 -12.25 C 17.632812 -13.519531 18.660156 -14.929688 19.828125 -16.484375 C 20.992188 -18.046875 22.335938 -19.796875 23.859375 -21.734375 C 25.390625 -23.679688 26.460938 -25.070312 27.078125 -25.90625 C 27.128906 -25.96875 27.179688 -26.039062 27.234375 -26.125 C 27.296875 -26.207031 27.351562 -26.273438 27.40625 -26.328125 L 27.75 -26.328125 C 27.800781 -26.328125 27.828125 -26.242188 27.828125 -26.078125 C 27.878906 -25.796875 27.710938 -25.460938 27.328125 -25.078125 C 26.941406 -24.523438 26.191406 -23.550781 25.078125 -22.15625 C 23.960938 -20.769531 23.210938 -19.800781 22.828125 -19.25 C 21.878906 -17.96875 20.460938 -15.992188 18.578125 -13.328125 C 16.859375 -10.941406 14.773438 -8.222656 12.328125 -5.171875 C 11.210938 -3.773438 10.019531 -2.609375 8.75 -1.671875 C 7.800781 -1.003906 6.800781 -0.503906 5.75 -0.171875 Z M 5.75 -0.171875 "/></g></g></g></svg>