<svg xmlns="http://www.w3.org/2000/svg" xmlns:xlink="http://www.w3.org/1999/xlink" width="500" zoomAndPan="magnify" viewBox="0 0 375 374.999991" height="500" preserveAspectRatio="xMidYMid meet" version="1.0"><defs><g/></defs><g fill="#55996f" fill-opacity="1"><g transform="translate(78.877053, 194.303308)"><g><path d="M 18.246094 -34.507812 C 14.839844 -36.28125 12.992188 -38.765625 12.710938 -41.890625 C 12.566406 -43.738281 12.921875 -45.371094 13.773438 -46.789062 C 14.625 -48.210938 16.117188 -48.921875 18.105469 -48.921875 C 18.105469 -48.921875 18.246094 -48.851562 18.460938 -48.851562 C 18.601562 -48.851562 18.746094 -48.851562 18.886719 -48.851562 C 20.589844 -48.636719 21.796875 -47.855469 22.648438 -46.4375 C 23.5 -45.015625 23.855469 -43.453125 23.714844 -41.75 C 23.574219 -40.046875 23.359375 -38.414062 23.074219 -36.851562 C 25.914062 -36.921875 28.1875 -38.199219 29.820312 -40.753906 C 31.382812 -43.242188 32.164062 -46.007812 32.09375 -48.992188 C 32.09375 -53.535156 30.816406 -57.15625 28.257812 -59.996094 C 25.703125 -62.835938 22.152344 -64.257812 17.539062 -64.257812 C 12.566406 -64.257812 8.664062 -62.554688 5.75 -59.285156 C 2.839844 -55.949219 1.421875 -51.761719 1.492188 -46.789062 C 1.492188 -42.601562 2.554688 -38.980469 4.6875 -35.855469 C 6.53125 -33.15625 9.726562 -30.816406 14.34375 -28.828125 C 16.472656 -27.832031 18.035156 -26.839844 19.027344 -25.84375 C 20.023438 -24.78125 20.589844 -23.21875 20.589844 -21.230469 C 20.589844 -19.101562 20.09375 -17.464844 19.171875 -16.332031 C 18.175781 -15.125 16.96875 -14.554688 15.480469 -14.554688 C 12.992188 -14.554688 11.359375 -15.761719 10.507812 -18.320312 C 9.65625 -20.734375 9.585938 -23.429688 10.4375 -26.554688 C 7.457031 -26.414062 5.183594 -25.136719 3.550781 -22.578125 C 1.847656 -20.023438 1.066406 -17.324219 1.207031 -14.34375 C 1.347656 -9.796875 2.699219 -6.105469 5.253906 -3.335938 C 7.808594 -0.496094 11.503906 0.921875 16.257812 0.921875 C 19.453125 0.921875 22.292969 0.0703125 24.707031 -1.703125 C 27.121094 -3.40625 28.96875 -5.679688 30.175781 -8.519531 C 31.3125 -11.289062 31.878906 -14.34375 31.878906 -17.679688 C 31.878906 -23.003906 30.035156 -27.050781 26.414062 -29.890625 C 25.84375 -30.316406 25.136719 -30.742188 24.425781 -31.171875 C 23.714844 -31.597656 23.074219 -32.023438 22.507812 -32.304688 C 21.941406 -32.589844 21.160156 -33.015625 20.234375 -33.441406 C 19.3125 -33.867188 18.671875 -34.222656 18.246094 -34.507812 Z M 18.246094 -34.507812 "/></g></g></g><g fill="#55996f" fill-opacity="1"><g transform="translate(110.539302, 194.303308)"><g><path d="M 2.128906 -24.707031 C 2.128906 -23.429688 2.414062 -22.222656 2.839844 -21.230469 C 3.265625 -20.234375 3.621094 -19.597656 3.90625 -19.3125 C 4.1875 -19.027344 4.402344 -18.886719 4.613281 -18.816406 C 8.589844 -19.242188 12.210938 -19.527344 15.480469 -19.527344 C 18.460938 -19.527344 22.082031 -19.242188 26.34375 -18.746094 L 26.980469 -19.3125 C 27.335938 -19.597656 27.761719 -20.308594 28.1875 -21.300781 C 28.613281 -22.292969 28.828125 -23.429688 28.828125 -24.707031 C 28.828125 -25.988281 28.542969 -27.195312 28.117188 -28.257812 C 27.621094 -29.253906 27.265625 -29.890625 26.980469 -30.175781 C 26.695312 -30.460938 26.484375 -30.671875 26.34375 -30.816406 C 22.367188 -30.316406 18.746094 -30.105469 15.480469 -30.105469 C 12.496094 -30.105469 8.875 -30.316406 4.613281 -30.886719 L 3.976562 -30.316406 C 3.550781 -29.890625 3.195312 -29.183594 2.769531 -28.1875 C 2.34375 -27.195312 2.128906 -25.988281 2.128906 -24.707031 Z M 2.128906 -24.707031 "/></g></g></g><g fill="#55996f" fill-opacity="1"><g transform="translate(139.716822, 194.303308)"><g><path d="M 18.957031 0.921875 C 23.21875 0.921875 26.695312 -0.992188 29.535156 -4.96875 C 31.949219 -8.449219 33.085938 -12.636719 32.875 -17.539062 C 32.730469 -20.804688 31.738281 -23.148438 30.035156 -24.636719 C 28.328125 -26.058594 25.773438 -26.839844 22.507812 -26.839844 C 22.507812 -24 21.726562 -21.300781 20.164062 -18.601562 C 18.601562 -15.90625 16.898438 -14.554688 15.050781 -14.554688 C 11.289062 -14.554688 9.441406 -18.105469 9.441406 -25.277344 C 9.441406 -27.121094 9.585938 -29.324219 9.941406 -31.738281 C 10.296875 -34.152344 10.863281 -36.707031 11.644531 -39.40625 C 12.425781 -42.105469 13.632812 -44.304688 15.195312 -46.152344 C 16.757812 -47.925781 18.53125 -48.851562 20.660156 -48.851562 C 22.222656 -48.851562 23.429688 -48.070312 24.28125 -46.507812 C 25.136719 -44.945312 25.488281 -43.3125 25.417969 -41.535156 C 25.347656 -39.691406 25.136719 -38.128906 24.851562 -36.851562 C 27.550781 -36.921875 29.820312 -38.199219 31.523438 -40.753906 C 33.230469 -43.242188 34.152344 -46.007812 34.292969 -48.992188 C 34.4375 -53.535156 33.441406 -57.15625 31.453125 -59.996094 C 29.394531 -62.835938 26.269531 -64.257812 22.152344 -64.257812 C 18.886719 -64.257812 16.046875 -63.40625 13.632812 -61.773438 C 11.148438 -60.140625 9.230469 -58.152344 7.882812 -55.738281 C 6.460938 -53.324219 5.324219 -50.410156 4.472656 -47.144531 C 3.621094 -43.878906 3.054688 -40.828125 2.769531 -38.058594 C 2.484375 -35.21875 2.34375 -32.378906 2.34375 -29.535156 C 2.34375 -26.910156 2.414062 -24.425781 2.628906 -22.082031 C 2.769531 -19.667969 3.195312 -17.039062 3.90625 -14.128906 C 4.613281 -11.148438 5.539062 -8.664062 6.675781 -6.53125 C 7.808594 -4.402344 9.371094 -2.628906 11.503906 -1.207031 C 13.632812 0.214844 16.117188 0.921875 18.957031 0.921875 Z M 18.957031 0.921875 "/></g></g></g><g fill="#55996f" fill-opacity="1"><g transform="translate(173.36685, 194.303308)"><g><path d="M 29.394531 -30.035156 L 28.96875 -26.625 C 28.828125 -26.058594 28.683594 -25.0625 28.472656 -23.644531 C 28.1875 -22.222656 28.046875 -21.230469 27.976562 -20.734375 C 27.902344 -20.164062 27.761719 -19.171875 27.621094 -17.75 C 27.40625 -16.332031 27.335938 -15.335938 27.335938 -14.769531 C 27.335938 -14.199219 27.265625 -13.207031 27.121094 -11.785156 C 26.980469 -10.367188 27.050781 -9.371094 27.195312 -8.804688 C 27.621094 -2.273438 30.53125 0.921875 36 0.921875 C 39.050781 0.992188 41.394531 0 43.027344 -2.128906 C 44.660156 -4.1875 45.511719 -6.746094 45.65625 -9.871094 C 45.65625 -12.425781 45.300781 -14.625 44.660156 -16.472656 C 43.3125 -15.265625 42.035156 -14.699219 40.753906 -14.699219 C 39.476562 -14.625 38.625 -15.335938 38.128906 -16.828125 C 37.558594 -18.246094 37.277344 -20.164062 37.277344 -22.4375 C 37.277344 -25.5625 37.84375 -30.246094 39.121094 -36.425781 C 40.402344 -42.601562 40.96875 -47.289062 40.898438 -50.554688 C 40.472656 -59.640625 36.070312 -64.257812 27.550781 -64.257812 C 25.488281 -64.257812 23.644531 -63.972656 22.082031 -63.476562 C 20.449219 -62.980469 19.242188 -62.410156 18.390625 -61.773438 C 17.539062 -61.132812 16.828125 -60.421875 16.257812 -59.640625 C 15.691406 -58.789062 15.335938 -58.222656 15.195312 -57.867188 C 15.050781 -57.441406 14.910156 -57.15625 14.910156 -56.945312 C 14.910156 -59.003906 14.273438 -60.707031 13.136719 -62.128906 C 11.929688 -63.546875 10.296875 -64.257812 8.308594 -64.257812 C 6.957031 -64.257812 5.609375 -63.972656 4.1875 -63.40625 C 2.769531 -62.835938 1.5625 -62.054688 0.710938 -61.203125 C 4.261719 -56.800781 6.105469 -51.050781 6.390625 -44.023438 C 6.460938 -40.472656 5.964844 -34.648438 4.828125 -26.625 C 4.6875 -26.058594 4.542969 -25.0625 4.332031 -23.644531 C 4.046875 -22.222656 3.90625 -21.230469 3.835938 -20.734375 C 3.761719 -20.164062 3.621094 -19.171875 3.480469 -17.75 C 3.265625 -16.332031 3.195312 -15.335938 3.195312 -14.769531 C 3.195312 -14.199219 3.125 -13.207031 2.980469 -11.785156 C 2.839844 -10.367188 2.910156 -9.371094 3.054688 -8.804688 C 3.480469 -2.273438 6.390625 0.921875 11.855469 0.921875 C 14.910156 0.992188 17.253906 0 18.886719 -2.128906 C 20.519531 -4.1875 21.371094 -6.746094 21.515625 -9.871094 C 21.515625 -12.425781 21.160156 -14.625 20.519531 -16.472656 C 19.171875 -15.265625 17.894531 -14.699219 16.613281 -14.699219 C 15.335938 -14.625 14.484375 -15.335938 13.988281 -16.828125 C 13.417969 -18.246094 13.136719 -20.164062 13.136719 -22.4375 C 13.066406 -24.566406 13.136719 -27.195312 13.417969 -30.246094 C 15.691406 -29.679688 18.460938 -29.464844 21.726562 -29.464844 C 24.28125 -29.464844 26.839844 -29.609375 29.394531 -30.035156 Z M 22.4375 -35.5 C 19.527344 -35.5 16.757812 -35.785156 14.128906 -36.351562 L 14.128906 -36.636719 C 14.414062 -39.691406 15.480469 -42.460938 17.324219 -45.015625 C 19.101562 -47.5 21.441406 -48.777344 24.355469 -48.777344 C 28.898438 -48.777344 30.742188 -44.589844 29.890625 -36.210938 C 27.40625 -35.714844 24.921875 -35.5 22.4375 -35.5 Z M 22.4375 -35.5 "/></g></g></g><g fill="#55996f" fill-opacity="1"><g transform="translate(218.020663, 194.303308)"><g><path d="M 19.382812 -16.472656 C 18.035156 -15.265625 16.757812 -14.699219 15.550781 -14.699219 C 14.414062 -14.625 13.5625 -15.265625 12.992188 -16.542969 C 12.425781 -17.820312 12.140625 -19.527344 12 -21.585938 C 11.929688 -22.722656 11.929688 -23.574219 11.929688 -24 C 11.929688 -24.425781 12 -24.921875 12.070312 -25.5625 C 12.140625 -26.128906 12.210938 -26.625 12.210938 -26.910156 C 13.632812 -27.476562 15.480469 -27.832031 17.820312 -27.832031 C 20.164062 -27.832031 21.867188 -27.195312 23.003906 -25.914062 C 24.140625 -24.636719 24.707031 -22.722656 24.851562 -20.164062 C 24.921875 -18.601562 24.851562 -16.757812 24.707031 -14.484375 C 24.566406 -12.210938 24.496094 -10.296875 24.566406 -8.804688 C 24.851562 -2.273438 27.832031 0.921875 33.371094 0.921875 C 36.425781 0.992188 38.765625 0 40.402344 -2.128906 C 42.035156 -4.1875 42.886719 -6.746094 43.027344 -9.871094 C 43.027344 -12.425781 42.671875 -14.625 42.035156 -16.472656 C 40.683594 -15.265625 39.40625 -14.699219 38.128906 -14.699219 C 36.851562 -14.625 36 -15.050781 35.5 -15.976562 C 34.933594 -16.828125 34.648438 -18.035156 34.648438 -19.453125 C 34.578125 -21.160156 34.363281 -22.722656 33.9375 -24.28125 C 33.511719 -25.773438 32.730469 -27.195312 31.523438 -28.542969 C 30.316406 -29.890625 28.757812 -30.742188 26.910156 -31.097656 C 30.390625 -32.378906 33.371094 -34.792969 35.855469 -38.414062 C 38.269531 -41.960938 39.621094 -45.796875 39.761719 -49.84375 C 39.902344 -54.246094 38.839844 -57.726562 36.707031 -60.351562 C 34.578125 -62.910156 31.3125 -64.257812 26.980469 -64.257812 C 24.496094 -64.257812 22.011719 -63.546875 19.527344 -62.199219 C 17.039062 -60.777344 15.265625 -59.074219 14.199219 -57.015625 L 13.988281 -57.015625 C 14.058594 -59.285156 13.492188 -61.0625 12.285156 -62.339844 C 11.003906 -63.617188 9.230469 -64.257812 6.886719 -64.257812 C 3.90625 -64.257812 1.632812 -63.40625 0 -61.84375 C 3.480469 -56.871094 5.324219 -50.765625 5.46875 -43.523438 C 5.46875 -39.832031 5.042969 -34.507812 4.117188 -27.40625 C 3.976562 -26.414062 3.691406 -24.851562 3.335938 -22.863281 C 2.980469 -20.875 2.699219 -19.242188 2.554688 -18.035156 C 2.34375 -16.757812 2.199219 -15.265625 2.058594 -13.5625 C 1.917969 -11.855469 1.847656 -10.222656 1.988281 -8.804688 C 2.273438 -2.273438 5.253906 0.921875 10.792969 0.921875 C 13.773438 0.992188 16.117188 0 17.75 -2.128906 C 19.382812 -4.1875 20.234375 -6.746094 20.378906 -9.871094 C 20.449219 -12.425781 20.09375 -14.625 19.382812 -16.472656 Z M 23.855469 -36.070312 C 20.734375 -33.867188 17.253906 -32.660156 13.277344 -32.519531 C 13.5625 -34.863281 14.058594 -37.207031 14.910156 -39.476562 C 15.691406 -41.75 16.96875 -43.878906 18.816406 -45.867188 C 20.589844 -47.855469 22.648438 -48.851562 24.992188 -48.851562 C 28.117188 -48.851562 29.535156 -47.289062 29.253906 -44.234375 C 29.109375 -42.957031 28.542969 -41.535156 27.550781 -39.972656 C 26.484375 -38.414062 25.277344 -37.0625 23.855469 -36.070312 Z M 23.855469 -36.070312 "/></g></g></g><g fill="#55996f" fill-opacity="1"><g transform="translate(259.337848, 194.303308)"><g><path d="M 17.609375 -35.003906 C 16.6875 -35.003906 15.761719 -35.074219 14.839844 -35.21875 C 15.195312 -36.777344 15.691406 -38.199219 16.257812 -39.621094 C 16.828125 -40.96875 17.539062 -42.386719 18.390625 -43.878906 C 19.242188 -45.371094 20.378906 -46.578125 21.65625 -47.5 C 22.933594 -48.351562 24.355469 -48.851562 25.914062 -48.851562 C 27.476562 -48.851562 28.683594 -48.421875 29.609375 -47.644531 C 30.53125 -46.863281 31.242188 -45.441406 31.667969 -43.382812 C 34.363281 -44.519531 36.351562 -46.152344 37.558594 -48.210938 C 38.695312 -50.269531 39.335938 -52.328125 39.40625 -54.386719 C 39.40625 -57.9375 38.199219 -60.566406 35.785156 -62.339844 C 33.9375 -63.617188 31.382812 -64.257812 28.257812 -64.257812 C 25.632812 -64.257812 23.074219 -63.546875 20.660156 -62.269531 C 18.246094 -60.921875 16.472656 -59.144531 15.335938 -56.945312 L 15.125 -56.945312 C 15.195312 -59.214844 14.625 -61.0625 13.417969 -62.339844 C 12.140625 -63.617188 10.367188 -64.257812 8.023438 -64.257812 C 5.042969 -64.257812 2.769531 -63.40625 1.136719 -61.84375 C 4.613281 -56.871094 6.460938 -50.765625 6.601562 -43.523438 C 6.601562 -40.117188 6.175781 -34.578125 5.183594 -26.980469 C 5.113281 -26.554688 4.898438 -25.417969 4.613281 -23.5 C 4.332031 -21.585938 4.117188 -20.308594 4.046875 -19.597656 C 3.976562 -18.886719 3.90625 -17.679688 3.761719 -16.046875 C 3.621094 -14.34375 3.550781 -13.066406 3.621094 -12.140625 C 3.691406 -11.148438 3.835938 -10.082031 4.117188 -8.875 C 4.332031 -7.597656 4.6875 -6.53125 5.113281 -5.609375 C 7.101562 -1.207031 10.933594 0.921875 16.542969 0.921875 C 21.085938 0.921875 25.136719 -0.425781 28.542969 -3.125 C 31.949219 -5.820312 33.65625 -9.441406 33.65625 -13.988281 C 33.65625 -15.691406 33.15625 -17.324219 32.164062 -18.746094 C 31.171875 -20.164062 29.964844 -21.085938 28.683594 -21.515625 C 27.621094 -19.242188 26.199219 -17.539062 24.355469 -16.257812 C 22.507812 -14.980469 20.875 -14.414062 19.3125 -14.484375 C 17.464844 -14.484375 16.046875 -15.40625 15.050781 -17.183594 C 14.058594 -18.886719 13.492188 -21.160156 13.417969 -24 C 13.347656 -25.488281 13.492188 -27.476562 13.773438 -29.890625 C 18.246094 -27.335938 21.796875 -26.128906 24.425781 -26.128906 C 25.0625 -26.128906 25.5625 -26.128906 25.84375 -26.199219 C 27.40625 -26.414062 28.613281 -27.050781 29.535156 -28.1875 C 30.460938 -29.253906 30.886719 -30.671875 30.886719 -32.378906 C 30.816406 -34.507812 29.679688 -36.707031 27.40625 -38.910156 C 25.136719 -36.28125 21.867188 -35.003906 17.609375 -35.003906 Z M 17.609375 -35.003906 "/></g></g></g><g fill="#e12c2c" fill-opacity="1"><g transform="translate(78.877053, 194.303308)"><g><path d="M 18.246094 -34.507812 C 14.839844 -36.28125 12.992188 -38.765625 12.710938 -41.890625 C 12.566406 -43.738281 12.921875 -45.371094 13.773438 -46.789062 C 14.625 -48.210938 16.117188 -48.921875 18.105469 -48.921875 C 18.105469 -48.921875 18.246094 -48.851562 18.460938 -48.851562 C 18.601562 -48.851562 18.746094 -48.851562 18.886719 -48.851562 C 20.589844 -48.636719 21.796875 -47.855469 22.648438 -46.4375 C 23.5 -45.015625 23.855469 -43.453125 23.714844 -41.75 C 23.574219 -40.046875 23.359375 -38.414062 23.074219 -36.851562 C 25.914062 -36.921875 28.1875 -38.199219 29.820312 -40.753906 C 31.382812 -43.242188 32.164062 -46.007812 32.09375 -48.992188 C 32.09375 -53.535156 30.816406 -57.15625 28.257812 -59.996094 C 25.703125 -62.835938 22.152344 -64.257812 17.539062 -64.257812 C 12.566406 -64.257812 8.664062 -62.554688 5.75 -59.285156 C 2.839844 -55.949219 1.421875 -51.761719 1.492188 -46.789062 C 1.492188 -42.601562 2.554688 -38.980469 4.6875 -35.855469 C 6.53125 -33.15625 9.726562 -30.816406 14.34375 -28.828125 C 16.472656 -27.832031 18.035156 -26.839844 19.027344 -25.84375 C 20.023438 -24.78125 20.589844 -23.21875 20.589844 -21.230469 C 20.589844 -19.101562 20.09375 -17.464844 19.171875 -16.332031 C 18.175781 -15.125 16.96875 -14.554688 15.480469 -14.554688 C 12.992188 -14.554688 11.359375 -15.761719 10.507812 -18.320312 C 9.65625 -20.734375 9.585938 -23.429688 10.4375 -26.554688 C 7.457031 -26.414062 5.183594 -25.136719 3.550781 -22.578125 C 1.847656 -20.023438 1.066406 -17.324219 1.207031 -14.34375 C 1.347656 -9.796875 2.699219 -6.105469 5.253906 -3.335938 C 7.808594 -0.496094 11.503906 0.921875 16.257812 0.921875 C 19.453125 0.921875 22.292969 0.0703125 24.707031 -1.703125 C 27.121094 -3.40625 28.96875 -5.679688 30.175781 -8.519531 C 31.3125 -11.289062 31.878906 -14.34375 31.878906 -17.679688 C 31.878906 -23.003906 30.035156 -27.050781 26.414062 -29.890625 C 25.84375 -30.316406 25.136719 -30.742188 24.425781 -31.171875 C 23.714844 -31.597656 23.074219 -32.023438 22.507812 -32.304688 C 21.941406 -32.589844 21.160156 -33.015625 20.234375 -33.441406 C 19.3125 -33.867188 18.671875 -34.222656 18.246094 -34.507812 Z M 18.246094 -34.507812 "/></g></g></g><g fill="#e12c2c" fill-opacity="1"><g transform="translate(110.539302, 194.303308)"><g><path d="M 2.128906 -24.707031 C 2.128906 -23.429688 2.414062 -22.222656 2.839844 -21.230469 C 3.265625 -20.234375 3.621094 -19.597656 3.90625 -19.3125 C 4.1875 -19.027344 4.402344 -18.886719 4.613281 -18.816406 C 8.589844 -19.242188 12.210938 -19.527344 15.480469 -19.527344 C 18.460938 -19.527344 22.082031 -19.242188 26.34375 -18.746094 L 26.980469 -19.3125 C 27.335938 -19.597656 27.761719 -20.308594 28.1875 -21.300781 C 28.613281 -22.292969 28.828125 -23.429688 28.828125 -24.707031 C 28.828125 -25.988281 28.542969 -27.195312 28.117188 -28.257812 C 27.621094 -29.253906 27.265625 -29.890625 26.980469 -30.175781 C 26.695312 -30.460938 26.484375 -30.671875 26.34375 -30.816406 C 22.367188 -30.316406 18.746094 -30.105469 15.480469 -30.105469 C 12.496094 -30.105469 8.875 -30.316406 4.613281 -30.886719 L 3.976562 -30.316406 C 3.550781 -29.890625 3.195312 -29.183594 2.769531 -28.1875 C 2.34375 -27.195312 2.128906 -25.988281 2.128906 -24.707031 Z M 2.128906 -24.707031 "/></g></g></g><g fill="#e12c2c" fill-opacity="1"><g transform="translate(139.716822, 194.303308)"><g><path d="M 18.957031 0.921875 C 23.21875 0.921875 26.695312 -0.992188 29.535156 -4.96875 C 31.949219 -8.449219 33.085938 -12.636719 32.875 -17.539062 C 32.730469 -20.804688 31.738281 -23.148438 30.035156 -24.636719 C 28.328125 -26.058594 25.773438 -26.839844 22.507812 -26.839844 C 22.507812 -24 21.726562 -21.300781 20.164062 -18.601562 C 18.601562 -15.90625 16.898438 -14.554688 15.050781 -14.554688 C 11.289062 -14.554688 9.441406 -18.105469 9.441406 -25.277344 C 9.441406 -27.121094 9.585938 -29.324219 9.941406 -31.738281 C 10.296875 -34.152344 10.863281 -36.707031 11.644531 -39.40625 C 12.425781 -42.105469 13.632812 -44.304688 15.195312 -46.152344 C 16.757812 -47.925781 18.53125 -48.851562 20.660156 -48.851562 C 22.222656 -48.851562 23.429688 -48.070312 24.28125 -46.507812 C 25.136719 -44.945312 25.488281 -43.3125 25.417969 -41.535156 C 25.347656 -39.691406 25.136719 -38.128906 24.851562 -36.851562 C 27.550781 -36.921875 29.820312 -38.199219 31.523438 -40.753906 C 33.230469 -43.242188 34.152344 -46.007812 34.292969 -48.992188 C 34.4375 -53.535156 33.441406 -57.15625 31.453125 -59.996094 C 29.394531 -62.835938 26.269531 -64.257812 22.152344 -64.257812 C 18.886719 -64.257812 16.046875 -63.40625 13.632812 -61.773438 C 11.148438 -60.140625 9.230469 -58.152344 7.882812 -55.738281 C 6.460938 -53.324219 5.324219 -50.410156 4.472656 -47.144531 C 3.621094 -43.878906 3.054688 -40.828125 2.769531 -38.058594 C 2.484375 -35.21875 2.34375 -32.378906 2.34375 -29.535156 C 2.34375 -26.910156 2.414062 -24.425781 2.628906 -22.082031 C 2.769531 -19.667969 3.195312 -17.039062 3.90625 -14.128906 C 4.613281 -11.148438 5.539062 -8.664062 6.675781 -6.53125 C 7.808594 -4.402344 9.371094 -2.628906 11.503906 -1.207031 C 13.632812 0.214844 16.117188 0.921875 18.957031 0.921875 Z M 18.957031 0.921875 "/></g></g></g><g fill="#e12c2c" fill-opacity="1"><g transform="translate(173.36685, 194.303308)"><g><path d="M 29.394531 -30.035156 L 28.96875 -26.625 C 28.828125 -26.058594 28.683594 -25.0625 28.472656 -23.644531 C 28.1875 -22.222656 28.046875 -21.230469 27.976562 -20.734375 C 27.902344 -20.164062 27.761719 -19.171875 27.621094 -17.75 C 27.40625 -16.332031 27.335938 -15.335938 27.335938 -14.769531 C 27.335938 -14.199219 27.265625 -13.207031 27.121094 -11.785156 C 26.980469 -10.367188 27.050781 -9.371094 27.195312 -8.804688 C 27.621094 -2.273438 30.53125 0.921875 36 0.921875 C 39.050781 0.992188 41.394531 0 43.027344 -2.128906 C 44.660156 -4.1875 45.511719 -6.746094 45.65625 -9.871094 C 45.65625 -12.425781 45.300781 -14.625 44.660156 -16.472656 C 43.3125 -15.265625 42.035156 -14.699219 40.753906 -14.699219 C 39.476562 -14.625 38.625 -15.335938 38.128906 -16.828125 C 37.558594 -18.246094 37.277344 -20.164062 37.277344 -22.4375 C 37.277344 -25.5625 37.84375 -30.246094 39.121094 -36.425781 C 40.402344 -42.601562 40.96875 -47.289062 40.898438 -50.554688 C 40.472656 -59.640625 36.070312 -64.257812 27.550781 -64.257812 C 25.488281 -64.257812 23.644531 -63.972656 22.082031 -63.476562 C 20.449219 -62.980469 19.242188 -62.410156 18.390625 -61.773438 C 17.539062 -61.132812 16.828125 -60.421875 16.257812 -59.640625 C 15.691406 -58.789062 15.335938 -58.222656 15.195312 -57.867188 C 15.050781 -57.441406 14.910156 -57.15625 14.910156 -56.945312 C 14.910156 -59.003906 14.273438 -60.707031 13.136719 -62.128906 C 11.929688 -63.546875 10.296875 -64.257812 8.308594 -64.257812 C 6.957031 -64.257812 5.609375 -63.972656 4.1875 -63.40625 C 2.769531 -62.835938 1.5625 -62.054688 0.710938 -61.203125 C 4.261719 -56.800781 6.105469 -51.050781 6.390625 -44.023438 C 6.460938 -40.472656 5.964844 -34.648438 4.828125 -26.625 C 4.6875 -26.058594 4.542969 -25.0625 4.332031 -23.644531 C 4.046875 -22.222656 3.90625 -21.230469 3.835938 -20.734375 C 3.761719 -20.164062 3.621094 -19.171875 3.480469 -17.75 C 3.265625 -16.332031 3.195312 -15.335938 3.195312 -14.769531 C 3.195312 -14.199219 3.125 -13.207031 2.980469 -11.785156 C 2.839844 -10.367188 2.910156 -9.371094 3.054688 -8.804688 C 3.480469 -2.273438 6.390625 0.921875 11.855469 0.921875 C 14.910156 0.992188 17.253906 0 18.886719 -2.128906 C 20.519531 -4.1875 21.371094 -6.746094 21.515625 -9.871094 C 21.515625 -12.425781 21.160156 -14.625 20.519531 -16.472656 C 19.171875 -15.265625 17.894531 -14.699219 16.613281 -14.699219 C 15.335938 -14.625 14.484375 -15.335938 13.988281 -16.828125 C 13.417969 -18.246094 13.136719 -20.164062 13.136719 -22.4375 C 13.066406 -24.566406 13.136719 -27.195312 13.417969 -30.246094 C 15.691406 -29.679688 18.460938 -29.464844 21.726562 -29.464844 C 24.28125 -29.464844 26.839844 -29.609375 29.394531 -30.035156 Z M 22.4375 -35.5 C 19.527344 -35.5 16.757812 -35.785156 14.128906 -36.351562 L 14.128906 -36.636719 C 14.414062 -39.691406 15.480469 -42.460938 17.324219 -45.015625 C 19.101562 -47.5 21.441406 -48.777344 24.355469 -48.777344 C 28.898438 -48.777344 30.742188 -44.589844 29.890625 -36.210938 C 27.40625 -35.714844 24.921875 -35.5 22.4375 -35.5 Z M 22.4375 -35.5 "/></g></g></g><g fill="#e12c2c" fill-opacity="1"><g transform="translate(218.020663, 194.303308)"><g><path d="M 19.382812 -16.472656 C 18.035156 -15.265625 16.757812 -14.699219 15.550781 -14.699219 C 14.414062 -14.625 13.5625 -15.265625 12.992188 -16.542969 C 12.425781 -17.820312 12.140625 -19.527344 12 -21.585938 C 11.929688 -22.722656 11.929688 -23.574219 11.929688 -24 C 11.929688 -24.425781 12 -24.921875 12.070312 -25.5625 C 12.140625 -26.128906 12.210938 -26.625 12.210938 -26.910156 C 13.632812 -27.476562 15.480469 -27.832031 17.820312 -27.832031 C 20.164062 -27.832031 21.867188 -27.195312 23.003906 -25.914062 C 24.140625 -24.636719 24.707031 -22.722656 24.851562 -20.164062 C 24.921875 -18.601562 24.851562 -16.757812 24.707031 -14.484375 C 24.566406 -12.210938 24.496094 -10.296875 24.566406 -8.804688 C 24.851562 -2.273438 27.832031 0.921875 33.371094 0.921875 C 36.425781 0.992188 38.765625 0 40.402344 -2.128906 C 42.035156 -4.1875 42.886719 -6.746094 43.027344 -9.871094 C 43.027344 -12.425781 42.671875 -14.625 42.035156 -16.472656 C 40.683594 -15.265625 39.40625 -14.699219 38.128906 -14.699219 C 36.851562 -14.625 36 -15.050781 35.5 -15.976562 C 34.933594 -16.828125 34.648438 -18.035156 34.648438 -19.453125 C 34.578125 -21.160156 34.363281 -22.722656 33.9375 -24.28125 C 33.511719 -25.773438 32.730469 -27.195312 31.523438 -28.542969 C 30.316406 -29.890625 28.757812 -30.742188 26.910156 -31.097656 C 30.390625 -32.378906 33.371094 -34.792969 35.855469 -38.414062 C 38.269531 -41.960938 39.621094 -45.796875 39.761719 -49.84375 C 39.902344 -54.246094 38.839844 -57.726562 36.707031 -60.351562 C 34.578125 -62.910156 31.3125 -64.257812 26.980469 -64.257812 C 24.496094 -64.257812 22.011719 -63.546875 19.527344 -62.199219 C 17.039062 -60.777344 15.265625 -59.074219 14.199219 -57.015625 L 13.988281 -57.015625 C 14.058594 -59.285156 13.492188 -61.0625 12.285156 -62.339844 C 11.003906 -63.617188 9.230469 -64.257812 6.886719 -64.257812 C 3.90625 -64.257812 1.632812 -63.40625 0 -61.84375 C 3.480469 -56.871094 5.324219 -50.765625 5.46875 -43.523438 C 5.46875 -39.832031 5.042969 -34.507812 4.117188 -27.40625 C 3.976562 -26.414062 3.691406 -24.851562 3.335938 -22.863281 C 2.980469 -20.875 2.699219 -19.242188 2.554688 -18.035156 C 2.34375 -16.757812 2.199219 -15.265625 2.058594 -13.5625 C 1.917969 -11.855469 1.847656 -10.222656 1.988281 -8.804688 C 2.273438 -2.273438 5.253906 0.921875 10.792969 0.921875 C 13.773438 0.992188 16.117188 0 17.75 -2.128906 C 19.382812 -4.1875 20.234375 -6.746094 20.378906 -9.871094 C 20.449219 -12.425781 20.09375 -14.625 19.382812 -16.472656 Z M 23.855469 -36.070312 C 20.734375 -33.867188 17.253906 -32.660156 13.277344 -32.519531 C 13.5625 -34.863281 14.058594 -37.207031 14.910156 -39.476562 C 15.691406 -41.75 16.96875 -43.878906 18.816406 -45.867188 C 20.589844 -47.855469 22.648438 -48.851562 24.992188 -48.851562 C 28.117188 -48.851562 29.535156 -47.289062 29.253906 -44.234375 C 29.109375 -42.957031 28.542969 -41.535156 27.550781 -39.972656 C 26.484375 -38.414062 25.277344 -37.0625 23.855469 -36.070312 Z M 23.855469 -36.070312 "/></g></g></g><g fill="#e12c2c" fill-opacity="1"><g transform="translate(259.337848, 194.303308)"><g><path d="M 17.609375 -35.003906 C 16.6875 -35.003906 15.761719 -35.074219 14.839844 -35.21875 C 15.195312 -36.777344 15.691406 -38.199219 16.257812 -39.621094 C 16.828125 -40.96875 17.539062 -42.386719 18.390625 -43.878906 C 19.242188 -45.371094 20.378906 -46.578125 21.65625 -47.5 C 22.933594 -48.351562 24.355469 -48.851562 25.914062 -48.851562 C 27.476562 -48.851562 28.683594 -48.421875 29.609375 -47.644531 C 30.53125 -46.863281 31.242188 -45.441406 31.667969 -43.382812 C 34.363281 -44.519531 36.351562 -46.152344 37.558594 -48.210938 C 38.695312 -50.269531 39.335938 -52.328125 39.40625 -54.386719 C 39.40625 -57.9375 38.199219 -60.566406 35.785156 -62.339844 C 33.9375 -63.617188 31.382812 -64.257812 28.257812 -64.257812 C 25.632812 -64.257812 23.074219 -63.546875 20.660156 -62.269531 C 18.246094 -60.921875 16.472656 -59.144531 15.335938 -56.945312 L 15.125 -56.945312 C 15.195312 -59.214844 14.625 -61.0625 13.417969 -62.339844 C 12.140625 -63.617188 10.367188 -64.257812 8.023438 -64.257812 C 5.042969 -64.257812 2.769531 -63.40625 1.136719 -61.84375 C 4.613281 -56.871094 6.460938 -50.765625 6.601562 -43.523438 C 6.601562 -40.117188 6.175781 -34.578125 5.183594 -26.980469 C 5.113281 -26.554688 4.898438 -25.417969 4.613281 -23.5 C 4.332031 -21.585938 4.117188 -20.308594 4.046875 -19.597656 C 3.976562 -18.886719 3.90625 -17.679688 3.761719 -16.046875 C 3.621094 -14.34375 3.550781 -13.066406 3.621094 -12.140625 C 3.691406 -11.148438 3.835938 -10.082031 4.117188 -8.875 C 4.332031 -7.597656 4.6875 -6.53125 5.113281 -5.609375 C 7.101562 -1.207031 10.933594 0.921875 16.542969 0.921875 C 21.085938 0.921875 25.136719 -0.425781 28.542969 -3.125 C 31.949219 -5.820312 33.65625 -9.441406 33.65625 -13.988281 C 33.65625 -15.691406 33.15625 -17.324219 32.164062 -18.746094 C 31.171875 -20.164062 29.964844 -21.085938 28.683594 -21.515625 C 27.621094 -19.242188 26.199219 -17.539062 24.355469 -16.257812 C 22.507812 -14.980469 20.875 -14.414062 19.3125 -14.484375 C 17.464844 -14.484375 16.046875 -15.40625 15.050781 -17.183594 C 14.058594 -18.886719 13.492188 -21.160156 13.417969 -24 C 13.347656 -25.488281 13.492188 -27.476562 13.773438 -29.890625 C 18.246094 -27.335938 21.796875 -26.128906 24.425781 -26.128906 C 25.0625 -26.128906 25.5625 -26.128906 25.84375 -26.199219 C 27.40625 -26.414062 28.613281 -27.050781 29.535156 -28.1875 C 30.460938 -29.253906 30.886719 -30.671875 30.886719 -32.378906 C 30.816406 -34.507812 29.679688 -36.707031 27.40625 -38.910156 C 25.136719 -36.28125 21.867188 -35.003906 17.609375 -35.003906 Z M 17.609375 -35.003906 "/></g></g></g><g fill="#e12c2c" fill-opacity="1"><g transform="translate(256.628499, 232.928656)"><g><path d="M 2.394531 -4.761719 C 2.269531 -4.761719 2.144531 -4.773438 2.019531 -4.792969 C 2.066406 -5.003906 2.136719 -5.195312 2.210938 -5.390625 C 2.289062 -5.574219 2.386719 -5.765625 2.5 -5.96875 C 2.617188 -6.171875 2.773438 -6.335938 2.945312 -6.460938 C 3.121094 -6.578125 3.3125 -6.644531 3.527344 -6.644531 C 3.738281 -6.644531 3.902344 -6.589844 4.027344 -6.480469 C 4.152344 -6.375 4.25 -6.183594 4.308594 -5.902344 C 4.675781 -6.058594 4.945312 -6.277344 5.109375 -6.558594 C 5.265625 -6.839844 5.351562 -7.121094 5.359375 -7.398438 C 5.359375 -7.882812 5.195312 -8.238281 4.867188 -8.480469 C 4.617188 -8.65625 4.269531 -8.742188 3.84375 -8.742188 C 3.488281 -8.742188 3.140625 -8.644531 2.8125 -8.472656 C 2.484375 -8.289062 2.242188 -8.046875 2.085938 -7.746094 L 2.058594 -7.746094 C 2.066406 -8.054688 1.988281 -8.308594 1.824219 -8.480469 C 1.652344 -8.65625 1.410156 -8.742188 1.089844 -8.742188 C 0.6875 -8.742188 0.375 -8.625 0.15625 -8.414062 C 0.628906 -7.738281 0.878906 -6.90625 0.898438 -5.921875 C 0.898438 -5.457031 0.839844 -4.703125 0.707031 -3.671875 C 0.695312 -3.613281 0.667969 -3.457031 0.628906 -3.199219 C 0.589844 -2.9375 0.558594 -2.761719 0.550781 -2.667969 C 0.539062 -2.570312 0.53125 -2.40625 0.511719 -2.183594 C 0.492188 -1.953125 0.484375 -1.777344 0.492188 -1.652344 C 0.503906 -1.515625 0.523438 -1.371094 0.558594 -1.207031 C 0.589844 -1.035156 0.636719 -0.890625 0.695312 -0.761719 C 0.964844 -0.164062 1.488281 0.125 2.25 0.125 C 2.867188 0.125 3.417969 -0.0585938 3.882812 -0.425781 C 4.347656 -0.792969 4.578125 -1.285156 4.578125 -1.902344 C 4.578125 -2.136719 4.511719 -2.355469 4.375 -2.550781 C 4.242188 -2.742188 4.078125 -2.867188 3.902344 -2.925781 C 3.757812 -2.617188 3.566406 -2.386719 3.3125 -2.210938 C 3.0625 -2.039062 2.839844 -1.960938 2.628906 -1.96875 C 2.375 -1.96875 2.183594 -2.097656 2.046875 -2.335938 C 1.914062 -2.570312 1.835938 -2.878906 1.824219 -3.265625 C 1.816406 -3.46875 1.835938 -3.738281 1.875 -4.066406 C 2.484375 -3.71875 2.964844 -3.554688 3.324219 -3.554688 C 3.410156 -3.554688 3.476562 -3.554688 3.515625 -3.566406 C 3.730469 -3.59375 3.894531 -3.679688 4.019531 -3.835938 C 4.144531 -3.980469 4.203125 -4.171875 4.203125 -4.40625 C 4.191406 -4.695312 4.039062 -4.996094 3.730469 -5.292969 C 3.417969 -4.9375 2.976562 -4.761719 2.394531 -4.761719 Z M 2.394531 -4.761719 "/></g></g></g><g fill="#e12c2c" fill-opacity="1"><g transform="translate(261.833336, 232.928656)"><g><path d="M 2.289062 -4.90625 C 2.492188 -4.886719 2.628906 -4.792969 2.703125 -4.597656 C 2.773438 -4.40625 2.773438 -4.191406 2.695312 -3.960938 C 3.003906 -3.960938 3.246094 -4.097656 3.417969 -4.367188 C 3.59375 -4.636719 3.679688 -4.9375 3.679688 -5.273438 C 3.671875 -5.757812 3.527344 -6.164062 3.246094 -6.472656 C 2.964844 -6.78125 2.570312 -6.925781 2.066406 -6.925781 C 1.546875 -6.917969 1.128906 -6.722656 0.820312 -6.347656 C 0.511719 -5.96875 0.355469 -5.515625 0.367188 -4.976562 C 0.367188 -4.28125 0.578125 -3.765625 1.015625 -3.457031 C 1.070312 -3.410156 1.148438 -3.363281 1.226562 -3.324219 C 1.304688 -3.273438 1.382812 -3.234375 1.4375 -3.214844 C 1.496094 -3.1875 1.585938 -3.148438 1.699219 -3.109375 C 1.816406 -3.0625 1.902344 -3.023438 1.980469 -2.996094 C 2.242188 -2.867188 2.386719 -2.722656 2.414062 -2.570312 C 2.433594 -2.355469 2.394531 -2.191406 2.28125 -2.078125 C 2.164062 -1.953125 2.007812 -1.894531 1.796875 -1.894531 L 1.730469 -1.894531 C 1.527344 -1.902344 1.390625 -2.007812 1.324219 -2.203125 C 1.253906 -2.394531 1.253906 -2.609375 1.332031 -2.839844 C 1.015625 -2.832031 0.761719 -2.683594 0.578125 -2.414062 C 0.394531 -2.144531 0.308594 -1.84375 0.328125 -1.527344 C 0.347656 -1.023438 0.492188 -0.628906 0.773438 -0.328125 C 1.054688 -0.0195312 1.449219 0.125 1.960938 0.125 C 2.472656 0.136719 2.886719 -0.0585938 3.199219 -0.464844 C 3.507812 -0.871094 3.652344 -1.351562 3.652344 -1.914062 C 3.652344 -2.5 3.457031 -2.945312 3.082031 -3.253906 C 2.945312 -3.351562 2.734375 -3.457031 2.433594 -3.582031 C 2.125 -3.710938 1.96875 -3.777344 1.953125 -3.785156 C 1.738281 -3.882812 1.621094 -4.046875 1.605469 -4.261719 C 1.585938 -4.453125 1.632812 -4.617188 1.75 -4.734375 C 1.863281 -4.847656 2.019531 -4.90625 2.222656 -4.90625 Z M 2.289062 -4.90625 "/></g></g></g><g fill="#e12c2c" fill-opacity="1"><g transform="translate(265.927695, 232.928656)"><g><path d="M 4.472656 -1.632812 C 4.472656 -2 4.386719 -2.308594 4.210938 -2.558594 C 4.027344 -2.8125 3.765625 -2.9375 3.417969 -2.9375 C 3.3125 -2.230469 3.070312 -1.882812 2.683594 -1.882812 C 2.539062 -1.882812 2.433594 -1.941406 2.367188 -2.058594 C 2.300781 -2.171875 2.261719 -2.320312 2.261719 -2.484375 C 2.242188 -3.042969 2.328125 -3.929688 2.519531 -5.140625 C 2.597656 -5.160156 2.667969 -5.167969 2.722656 -5.167969 C 2.9375 -5.167969 3.042969 -5.023438 3.0625 -4.734375 C 3.070312 -4.445312 2.996094 -4.222656 2.832031 -4.066406 C 2.984375 -4.027344 3.128906 -4.007812 3.265625 -4.007812 C 3.691406 -4.007812 4.039062 -4.152344 4.289062 -4.464844 C 4.539062 -4.773438 4.675781 -5.140625 4.683594 -5.5625 C 4.683594 -5.941406 4.597656 -6.230469 4.414062 -6.433594 C 4.230469 -6.625 4.007812 -6.734375 3.75 -6.734375 C 3.496094 -6.734375 3.253906 -6.644531 3.042969 -6.472656 C 2.832031 -6.296875 2.683594 -6.058594 2.609375 -5.757812 C 2.65625 -6.046875 2.714844 -6.328125 2.773438 -6.597656 C 2.832031 -6.867188 2.867188 -7.0625 2.886719 -7.1875 C 2.90625 -7.3125 2.925781 -7.4375 2.925781 -7.554688 C 2.925781 -7.855469 2.820312 -8.074219 2.617188 -8.210938 C 2.40625 -8.347656 2.152344 -8.421875 1.855469 -8.421875 C 1.621094 -8.421875 1.4375 -8.394531 1.304688 -8.355469 C 1.167969 -8.316406 0.984375 -8.230469 0.742188 -8.09375 C 0.917969 -7.941406 1.082031 -7.621094 1.238281 -7.148438 C 1.390625 -6.664062 1.476562 -6.210938 1.496094 -5.765625 C 1.226562 -5.804688 1.023438 -5.910156 0.890625 -6.066406 C 0.753906 -6.222656 0.589844 -6.472656 0.414062 -6.828125 C 0.078125 -6.480469 -0.0976562 -6.105469 -0.105469 -5.71875 C -0.125 -5.179688 0.0664062 -4.839844 0.453125 -4.714844 C 0.550781 -4.675781 0.636719 -4.664062 0.722656 -4.664062 C 0.925781 -4.664062 1.160156 -4.753906 1.410156 -4.925781 C 1.390625 -4.820312 1.324219 -4.40625 1.199219 -3.679688 C 1.0625 -2.945312 0.996094 -2.347656 0.976562 -1.882812 C 0.9375 -1.34375 1.023438 -0.898438 1.21875 -0.570312 C 1.476562 -0.105469 1.933594 0.125 2.578125 0.125 C 3.082031 0.125 3.527344 -0.0390625 3.902344 -0.375 C 4.269531 -0.707031 4.464844 -1.128906 4.472656 -1.632812 Z M 4.472656 -1.632812 "/></g></g></g><g fill="#e12c2c" fill-opacity="1"><g transform="translate(270.784905, 232.928656)"><g><path d="M 0.261719 -0.957031 C 0.261719 -0.609375 0.347656 -0.347656 0.539062 -0.15625 C 0.734375 0.0390625 1.003906 0.136719 1.351562 0.136719 C 1.699219 0.136719 1.96875 0.0390625 2.164062 -0.15625 C 2.355469 -0.347656 2.464844 -0.609375 2.464844 -0.957031 C 2.464844 -1.292969 2.355469 -1.554688 2.164062 -1.75 C 1.96875 -1.941406 1.699219 -2.039062 1.351562 -2.039062 C 1.003906 -2.039062 0.734375 -1.941406 0.539062 -1.75 C 0.347656 -1.554688 0.261719 -1.292969 0.261719 -0.957031 Z M 0.261719 -0.957031 "/></g></g></g><g fill="#e12c2c" fill-opacity="1"><g transform="translate(273.710846, 232.928656)"><g/></g></g><g fill="#e12c2c" fill-opacity="1"><g transform="translate(275.777382, 232.928656)"><g><path d="M 3.449219 -1.960938 L 3.410156 -1.960938 C 3.253906 -1.96875 3.167969 -2.046875 3.140625 -2.191406 C 3.109375 -2.328125 3.148438 -2.511719 3.253906 -2.742188 C 3.304688 -2.859375 3.363281 -2.964844 3.429688 -3.082031 C 3.488281 -3.199219 3.574219 -3.324219 3.671875 -3.46875 C 3.765625 -3.613281 3.835938 -3.71875 3.882812 -3.785156 C 3.921875 -3.84375 4.019531 -3.96875 4.152344 -4.152344 C 4.289062 -4.335938 4.355469 -4.445312 4.375 -4.464844 C 4.898438 -5.207031 5.160156 -5.96875 5.140625 -6.742188 C 5.109375 -7.410156 4.878906 -7.910156 4.445312 -8.238281 C 4.007812 -8.570312 3.449219 -8.742188 2.761719 -8.742188 C 2.117188 -8.742188 1.566406 -8.578125 1.101562 -8.269531 C 0.636719 -7.949219 0.386719 -7.488281 0.328125 -6.878906 C 0.289062 -6.492188 0.347656 -6.132812 0.523438 -5.804688 C 0.6875 -5.476562 0.957031 -5.253906 1.324219 -5.140625 C 1.34375 -5.59375 1.457031 -5.960938 1.679688 -6.230469 C 1.894531 -6.5 2.222656 -6.644531 2.648438 -6.644531 C 2.957031 -6.644531 3.199219 -6.550781 3.363281 -6.375 C 3.515625 -6.203125 3.59375 -5.988281 3.59375 -5.757812 C 3.59375 -5.429688 3.46875 -5.023438 3.234375 -4.539062 C 2.996094 -4.058594 2.683594 -3.554688 2.300781 -3.035156 C 1.914062 -2.511719 1.566406 -2.058594 1.246094 -1.671875 C 0.925781 -1.285156 0.617188 -0.917969 0.308594 -0.578125 C 0.523438 -0.117188 0.871094 0.117188 1.371094 0.117188 C 1.652344 0.117188 1.882812 0.0273438 2.058594 -0.144531 C 2.085938 -0.175781 2.117188 -0.203125 2.144531 -0.242188 C 2.164062 -0.28125 2.191406 -0.308594 2.210938 -0.347656 C 2.230469 -0.386719 2.25 -0.425781 2.269531 -0.484375 C 2.289062 -0.539062 2.300781 -0.578125 2.320312 -0.617188 C 2.328125 -0.65625 2.335938 -0.707031 2.355469 -0.773438 C 2.375 -0.839844 2.386719 -0.890625 2.394531 -0.917969 C 2.394531 -0.945312 2.40625 -1.003906 2.425781 -1.082031 C 2.433594 -1.160156 2.445312 -1.207031 2.445312 -1.226562 C 2.445312 -1.246094 2.453125 -1.304688 2.472656 -1.382812 C 2.484375 -1.457031 2.492188 -1.507812 2.492188 -1.527344 L 2.53125 -1.527344 C 2.570312 -0.425781 3.003906 0.125 3.855469 0.125 C 4.269531 0.125 4.597656 -0.0195312 4.839844 -0.328125 C 5.070312 -0.628906 5.207031 -0.996094 5.234375 -1.4375 C 5.253906 -1.84375 5.167969 -2.210938 4.964844 -2.539062 C 4.753906 -2.867188 4.492188 -3.0625 4.183594 -3.140625 C 4.203125 -2.886719 4.132812 -2.636719 3.988281 -2.367188 C 3.835938 -2.097656 3.660156 -1.960938 3.449219 -1.960938 Z M 3.449219 -1.960938 "/></g></g></g><g fill="#e12c2c" fill-opacity="1"><g transform="translate(281.484338, 232.928656)"><g><path d="M 2.636719 0.125 C 3.015625 0.125 3.34375 0.0273438 3.621094 -0.175781 C 3.902344 -0.367188 4.113281 -0.609375 4.269531 -0.898438 C 4.414062 -1.1875 4.53125 -1.527344 4.628906 -1.933594 C 4.722656 -2.335938 4.78125 -2.695312 4.800781 -3.015625 C 4.820312 -3.324219 4.839844 -3.660156 4.839844 -4.019531 C 4.839844 -5.410156 4.628906 -6.550781 4.210938 -7.417969 C 3.796875 -8.289062 3.246094 -8.722656 2.570312 -8.742188 C 2.25 -8.742188 1.96875 -8.675781 1.71875 -8.539062 C 1.46875 -8.402344 1.273438 -8.21875 1.121094 -7.988281 C 0.964844 -7.746094 0.832031 -7.496094 0.722656 -7.226562 C 0.617188 -6.957031 0.539062 -6.644531 0.492188 -6.316406 C 0.445312 -5.980469 0.414062 -5.679688 0.394531 -5.417969 C 0.375 -5.148438 0.367188 -4.878906 0.367188 -4.597656 C 0.367188 -3.199219 0.570312 -2.066406 0.984375 -1.199219 C 1.402344 -0.328125 1.953125 0.105469 2.636719 0.125 Z M 1.371094 -5.574219 C 1.402344 -5.902344 1.476562 -6.164062 1.613281 -6.355469 C 1.738281 -6.550781 1.921875 -6.644531 2.152344 -6.644531 C 2.472656 -6.644531 2.773438 -6.460938 3.050781 -6.09375 C 3.324219 -5.71875 3.535156 -5.273438 3.671875 -4.753906 C 3.804688 -4.230469 3.863281 -3.730469 3.84375 -3.265625 C 3.824219 -2.878906 3.75 -2.570312 3.613281 -2.335938 C 3.476562 -2.097656 3.285156 -1.96875 3.042969 -1.96875 C 2.734375 -1.96875 2.433594 -2.171875 2.152344 -2.578125 C 1.875 -2.984375 1.660156 -3.46875 1.527344 -4.027344 C 1.382812 -4.589844 1.332031 -5.109375 1.371094 -5.574219 Z M 1.371094 -5.574219 "/></g></g></g><g fill="#e12c2c" fill-opacity="1"><g transform="translate(286.930575, 232.928656)"><g><path d="M 3.449219 -1.960938 L 3.410156 -1.960938 C 3.253906 -1.96875 3.167969 -2.046875 3.140625 -2.191406 C 3.109375 -2.328125 3.148438 -2.511719 3.253906 -2.742188 C 3.304688 -2.859375 3.363281 -2.964844 3.429688 -3.082031 C 3.488281 -3.199219 3.574219 -3.324219 3.671875 -3.46875 C 3.765625 -3.613281 3.835938 -3.71875 3.882812 -3.785156 C 3.921875 -3.84375 4.019531 -3.96875 4.152344 -4.152344 C 4.289062 -4.335938 4.355469 -4.445312 4.375 -4.464844 C 4.898438 -5.207031 5.160156 -5.96875 5.140625 -6.742188 C 5.109375 -7.410156 4.878906 -7.910156 4.445312 -8.238281 C 4.007812 -8.570312 3.449219 -8.742188 2.761719 -8.742188 C 2.117188 -8.742188 1.566406 -8.578125 1.101562 -8.269531 C 0.636719 -7.949219 0.386719 -7.488281 0.328125 -6.878906 C 0.289062 -6.492188 0.347656 -6.132812 0.523438 -5.804688 C 0.6875 -5.476562 0.957031 -5.253906 1.324219 -5.140625 C 1.34375 -5.59375 1.457031 -5.960938 1.679688 -6.230469 C 1.894531 -6.5 2.222656 -6.644531 2.648438 -6.644531 C 2.957031 -6.644531 3.199219 -6.550781 3.363281 -6.375 C 3.515625 -6.203125 3.59375 -5.988281 3.59375 -5.757812 C 3.59375 -5.429688 3.46875 -5.023438 3.234375 -4.539062 C 2.996094 -4.058594 2.683594 -3.554688 2.300781 -3.035156 C 1.914062 -2.511719 1.566406 -2.058594 1.246094 -1.671875 C 0.925781 -1.285156 0.617188 -0.917969 0.308594 -0.578125 C 0.523438 -0.117188 0.871094 0.117188 1.371094 0.117188 C 1.652344 0.117188 1.882812 0.0273438 2.058594 -0.144531 C 2.085938 -0.175781 2.117188 -0.203125 2.144531 -0.242188 C 2.164062 -0.28125 2.191406 -0.308594 2.210938 -0.347656 C 2.230469 -0.386719 2.25 -0.425781 2.269531 -0.484375 C 2.289062 -0.539062 2.300781 -0.578125 2.320312 -0.617188 C 2.328125 -0.65625 2.335938 -0.707031 2.355469 -0.773438 C 2.375 -0.839844 2.386719 -0.890625 2.394531 -0.917969 C 2.394531 -0.945312 2.40625 -1.003906 2.425781 -1.082031 C 2.433594 -1.160156 2.445312 -1.207031 2.445312 -1.226562 C 2.445312 -1.246094 2.453125 -1.304688 2.472656 -1.382812 C 2.484375 -1.457031 2.492188 -1.507812 2.492188 -1.527344 L 2.53125 -1.527344 C 2.570312 -0.425781 3.003906 0.125 3.855469 0.125 C 4.269531 0.125 4.597656 -0.0195312 4.839844 -0.328125 C 5.070312 -0.628906 5.207031 -0.996094 5.234375 -1.4375 C 5.253906 -1.84375 5.167969 -2.210938 4.964844 -2.539062 C 4.753906 -2.867188 4.492188 -3.0625 4.183594 -3.140625 C 4.203125 -2.886719 4.132812 -2.636719 3.988281 -2.367188 C 3.835938 -2.097656 3.660156 -1.960938 3.449219 -1.960938 Z M 3.449219 -1.960938 "/></g></g></g><g fill="#e12c2c" fill-opacity="1"><g transform="translate(292.637532, 232.928656)"><g><path d="M 4.800781 -3.535156 C 4.945312 -3.535156 5.03125 -3.46875 5.050781 -3.332031 C 5.070312 -3.199219 5.03125 -3.082031 4.917969 -2.984375 C 5.109375 -2.90625 5.265625 -2.878906 5.390625 -2.878906 C 5.660156 -2.878906 5.863281 -2.964844 6.019531 -3.148438 C 6.164062 -3.324219 6.242188 -3.554688 6.25 -3.84375 C 6.25 -4.085938 6.191406 -4.28125 6.074219 -4.425781 C 5.949219 -4.570312 5.777344 -4.65625 5.5625 -4.683594 C 5.527344 -4.683594 5.476562 -4.695312 5.417969 -4.695312 C 5.207031 -4.695312 4.976562 -4.644531 4.722656 -4.558594 L 4.753906 -4.859375 C 4.761719 -4.984375 4.859375 -5.476562 5.03125 -6.335938 C 5.140625 -6.917969 5.195312 -7.339844 5.207031 -7.632812 C 5.207031 -8.019531 5.089844 -8.296875 4.839844 -8.472656 C 4.589844 -8.644531 4.261719 -8.734375 3.84375 -8.742188 C 3.566406 -8.742188 3.3125 -8.714844 3.089844 -8.664062 C 3.035156 -7.960938 2.800781 -7.140625 2.40625 -6.191406 C 2.191406 -5.699219 1.863281 -5.167969 1.429688 -4.589844 C 0.996094 -4.007812 0.589844 -3.679688 0.210938 -3.582031 C 0.175781 -3.179688 0.25 -2.859375 0.464844 -2.617188 C 0.667969 -2.367188 0.9375 -2.230469 1.285156 -2.210938 C 1.304688 -2.210938 1.324219 -2.203125 1.351562 -2.203125 C 1.382812 -2.203125 1.402344 -2.203125 1.421875 -2.203125 C 1.75 -2.203125 2.105469 -2.28125 2.492188 -2.445312 C 2.878906 -2.609375 3.199219 -2.820312 3.457031 -3.082031 C 3.3125 -2.164062 3.253906 -1.535156 3.273438 -1.199219 C 3.3125 -0.308594 3.71875 0.125 4.472656 0.125 C 4.878906 0.136719 5.195312 0 5.417969 -0.289062 C 5.640625 -0.570312 5.757812 -0.917969 5.777344 -1.34375 C 5.785156 -1.691406 5.738281 -1.988281 5.640625 -2.242188 C 5.457031 -2.078125 5.285156 -2 5.121094 -2 C 4.945312 -1.988281 4.828125 -2.085938 4.753906 -2.289062 C 4.675781 -2.484375 4.636719 -2.742188 4.636719 -3.050781 C 4.636719 -3.265625 4.636719 -3.410156 4.644531 -3.507812 C 4.703125 -3.527344 4.753906 -3.535156 4.800781 -3.535156 Z M 3.621094 -6.644531 C 3.699219 -6.203125 3.71875 -5.660156 3.679688 -5.011719 C 3.621094 -4.453125 3.59375 -4.097656 3.574219 -3.941406 C 3.214844 -3.679688 2.558594 -3.554688 1.613281 -3.554688 C 2.40625 -4.210938 3.070312 -5.246094 3.621094 -6.644531 Z M 3.621094 -6.644531 "/></g></g></g></svg>